<svg xmlns="http://www.w3.org/2000/svg" width="4668" height="1714" viewBox="0 0 4668 1714" font-family="Helvetica,Arial,sans-serif">
<rect x="0" y="0" width="4668" height="1714" fill="white"/>
<text x="987.0" y="122.5" font-size="111.4" fill="#0b0b0b" text-anchor="middle">Cartpole Swingup</text>
<line x1="372.0" y1="1391.1" x2="1602.0" y2="1391.1" stroke="#e6e5e1" stroke-width="6.19"/>
<text x="322.5" y="1422.3" font-size="86.6" fill="#52514e" text-anchor="end">0</text>
<line x1="372.0" y1="1110.0" x2="1602.0" y2="1110.0" stroke="#e6e5e1" stroke-width="6.19"/>
<text x="322.5" y="1141.2" font-size="86.6" fill="#52514e" text-anchor="end">0.1</text>
<line x1="372.0" y1="829.0" x2="1602.0" y2="829.0" stroke="#e6e5e1" stroke-width="6.19"/>
<text x="322.5" y="860.2" font-size="86.6" fill="#52514e" text-anchor="end">0.2</text>
<line x1="372.0" y1="547.9" x2="1602.0" y2="547.9" stroke="#e6e5e1" stroke-width="6.19"/>
<text x="322.5" y="579.1" font-size="86.6" fill="#52514e" text-anchor="end">0.3</text>
<line x1="372.0" y1="266.8" x2="1602.0" y2="266.8" stroke="#e6e5e1" stroke-width="6.19"/>
<text x="322.5" y="298.0" font-size="86.6" fill="#52514e" text-anchor="end">0.4</text>
<text x="372.0" y="1529.7" font-size="86.6" fill="#52514e" text-anchor="middle">0</text>
<text x="591.6" y="1529.7" font-size="86.6" fill="#52514e" text-anchor="middle">10</text>
<text x="811.3" y="1529.7" font-size="86.6" fill="#52514e" text-anchor="middle">20</text>
<text x="1030.9" y="1529.7" font-size="86.6" fill="#52514e" text-anchor="middle">30</text>
<text x="1250.6" y="1529.7" font-size="86.6" fill="#52514e" text-anchor="middle">40</text>
<text x="1470.2" y="1529.7" font-size="86.6" fill="#52514e" text-anchor="middle">50</text>
<text x="987.0" y="1678.2" font-size="92.8" fill="#0b0b0b" text-anchor="middle">total index distance across all blocks</text>
<text x="111.4" y="791.1" font-size="92.8" fill="#0b0b0b" text-anchor="middle" transform="rotate(-90 111.4 791.1)">decoded goal shift (MSE)</text>
<line x1="372.0" y1="1391.1" x2="1602.0" y2="1391.1" stroke="#8a8880" stroke-width="8.66"/>
<polygon points="372.0,1391.1 394.0,1365.9 415.9,1300.3 437.9,1202.4 459.9,1124.2 481.8,1052.3 503.8,1001.7 525.8,967.1 547.7,946.8 569.7,924.2 591.6,903.5 613.6,890.5 635.6,870.8 657.5,871.0 679.5,856.1 701.5,849.6 723.4,843.1 745.4,838.8 767.4,831.1 789.3,829.6 811.3,828.2 833.2,834.7 855.2,825.1 877.2,842.1 899.1,817.1 921.1,817.9 943.1,826.0 965.0,822.0 987.0,832.7 1009.0,814.1 1030.9,823.6 1052.9,821.9 1074.9,821.7 1096.8,830.9 1118.8,825.5 1140.8,833.1 1162.7,834.7 1184.7,836.4 1206.6,825.3 1228.6,826.9 1250.6,786.1 1272.5,753.0 1294.5,774.9 1294.5,1004.9 1272.5,1000.1 1250.6,1014.0 1228.6,1040.9 1206.6,1032.1 1184.7,1034.5 1162.7,1038.7 1140.8,1026.8 1118.8,1031.3 1096.8,1018.1 1074.9,1009.6 1052.9,1007.0 1030.9,999.5 1009.0,1006.4 987.0,996.9 965.0,996.8 943.1,985.9 921.1,993.4 899.1,987.7 877.2,988.8 855.2,971.9 833.2,978.3 811.3,983.2 789.3,980.2 767.4,974.1 745.4,979.9 723.4,988.8 701.5,979.7 679.5,987.6 657.5,995.3 635.6,1000.1 613.6,1016.8 591.6,1019.3 569.7,1037.1 547.7,1062.1 525.8,1088.3 503.8,1120.5 481.8,1158.3 459.9,1198.9 437.9,1262.7 415.9,1320.7 394.0,1376.4 372.0,1391.1" fill="#52514e" fill-opacity="0.16" stroke="none"/>
<path d="M1294.5,889.9 L1316.5,862.4 L1338.4,858.8 L1360.4,851.2 L1382.4,864.6 L1404.3,814.1 L1426.3,773.4 L1448.2,580.1 L1470.2,702.0 L1492.2,604.0 L1514.1,604.9" fill="none" stroke="#52514e" stroke-width="14.85" stroke-opacity="0.35" stroke-dasharray="30.9,24.8"/>
<path d="M372.0,1391.1 L394.0,1371.1 L415.9,1310.5 L437.9,1232.6 L459.9,1161.5 L481.8,1105.3 L503.8,1061.1 L525.8,1027.7 L547.7,1004.5 L569.7,980.7 L591.6,961.4 L613.6,953.7 L635.6,935.4 L657.5,933.2 L679.5,921.8 L701.5,914.6 L723.4,916.0 L745.4,909.3 L767.4,902.6 L789.3,904.9 L811.3,905.7 L833.2,906.5 L855.2,898.5 L877.2,915.4 L899.1,902.4 L921.1,905.7 L943.1,906.0 L965.0,909.4 L987.0,914.8 L1009.0,910.2 L1030.9,911.6 L1052.9,914.4 L1074.9,915.7 L1096.8,924.5 L1118.8,928.4 L1140.8,930.0 L1162.7,936.7 L1184.7,935.5 L1206.6,928.7 L1228.6,933.9 L1250.6,900.1 L1272.5,876.5 L1294.5,889.9" fill="none" stroke="#52514e" stroke-width="21.04" stroke-linejoin="round"/>
<circle cx="372.0" cy="1391.1" r="21.0" fill="#52514e" stroke="white" stroke-width="8.66"/>
<circle cx="437.9" cy="1232.6" r="21.0" fill="#52514e" stroke="white" stroke-width="8.66"/>
<circle cx="503.8" cy="1061.1" r="21.0" fill="#52514e" stroke="white" stroke-width="8.66"/>
<circle cx="569.7" cy="980.7" r="21.0" fill="#52514e" stroke="white" stroke-width="8.66"/>
<circle cx="635.6" cy="935.4" r="21.0" fill="#52514e" stroke="white" stroke-width="8.66"/>
<circle cx="701.5" cy="914.6" r="21.0" fill="#52514e" stroke="white" stroke-width="8.66"/>
<circle cx="767.4" cy="902.6" r="21.0" fill="#52514e" stroke="white" stroke-width="8.66"/>
<circle cx="833.2" cy="906.5" r="21.0" fill="#52514e" stroke="white" stroke-width="8.66"/>
<circle cx="899.1" cy="902.4" r="21.0" fill="#52514e" stroke="white" stroke-width="8.66"/>
<circle cx="965.0" cy="909.4" r="21.0" fill="#52514e" stroke="white" stroke-width="8.66"/>
<circle cx="1030.9" cy="911.6" r="21.0" fill="#52514e" stroke="white" stroke-width="8.66"/>
<circle cx="1096.8" cy="924.5" r="21.0" fill="#52514e" stroke="white" stroke-width="8.66"/>
<circle cx="1162.7" cy="936.7" r="21.0" fill="#52514e" stroke="white" stroke-width="8.66"/>
<circle cx="1228.6" cy="933.9" r="21.0" fill="#52514e" stroke="white" stroke-width="8.66"/>
<circle cx="1294.5" cy="889.9" r="21.0" fill="#52514e" stroke="white" stroke-width="8.66"/>
<circle cx="1294.5" cy="889.9" r="21.0" fill="#52514e" stroke="white" stroke-width="8.66"/>
<polygon points="372.0,1391.1 394.0,1385.3 415.9,1373.1 437.9,1359.0 459.9,1330.0 481.8,1303.0 503.8,1276.4 525.8,1231.4 547.7,1207.0 569.7,1169.3 591.6,1136.0 613.6,1105.7 635.6,1076.0 657.5,1046.6 679.5,1011.2 701.5,987.7 723.4,959.4 745.4,931.0 767.4,900.2 789.3,866.7 811.3,832.6 833.2,801.5 855.2,773.5 877.2,737.1 899.1,702.1 921.1,669.3 943.1,647.3 965.0,621.4 987.0,608.6 1009.0,568.7 1030.9,541.9 1052.9,523.1 1074.9,496.1 1096.8,473.1 1118.8,453.6 1140.8,438.5 1162.7,422.7 1184.7,413.5 1206.6,387.8 1228.6,381.1 1250.6,375.8 1272.5,374.7 1294.5,360.4 1316.5,323.8 1316.5,694.8 1294.5,681.5 1272.5,681.7 1250.6,671.8 1228.6,676.6 1206.6,672.4 1184.7,688.6 1162.7,696.4 1140.8,705.4 1118.8,733.7 1096.8,745.3 1074.9,758.1 1052.9,781.9 1030.9,793.1 1009.0,819.6 987.0,836.6 965.0,858.7 943.1,882.7 921.1,901.5 899.1,927.3 877.2,953.1 855.2,980.0 833.2,1002.8 811.3,1024.3 789.3,1048.0 767.4,1069.2 745.4,1095.0 723.4,1115.9 701.5,1135.9 679.5,1155.2 657.5,1172.4 635.6,1197.5 613.6,1214.8 591.6,1239.4 569.7,1262.7 547.7,1275.5 525.8,1297.8 503.8,1318.8 481.8,1336.4 459.9,1353.9 437.9,1367.8 415.9,1383.0 394.0,1387.6 372.0,1391.1" fill="#2a78d6" fill-opacity="0.16" stroke="none"/>
<path d="M1316.5,509.3 L1338.4,510.8 L1360.4,507.2 L1382.4,521.4 L1404.3,513.7 L1426.3,522.4 L1448.2,511.2 L1470.2,495.8 L1492.2,515.4 L1514.1,446.7 L1536.1,450.2" fill="none" stroke="#2a78d6" stroke-width="14.85" stroke-opacity="0.35" stroke-dasharray="30.9,24.8"/>
<path d="M372.0,1391.1 L394.0,1386.5 L415.9,1378.0 L437.9,1363.4 L459.9,1342.0 L481.8,1319.7 L503.8,1297.6 L525.8,1264.6 L547.7,1241.3 L569.7,1216.0 L591.6,1187.7 L613.6,1160.2 L635.6,1136.8 L657.5,1109.5 L679.5,1083.2 L701.5,1061.8 L723.4,1037.6 L745.4,1013.0 L767.4,984.7 L789.3,957.3 L811.3,928.4 L833.2,902.2 L855.2,876.7 L877.2,845.1 L899.1,814.7 L921.1,785.4 L943.1,765.0 L965.0,740.0 L987.0,722.6 L1009.0,694.1 L1030.9,667.5 L1052.9,652.5 L1074.9,627.1 L1096.8,609.2 L1118.8,593.7 L1140.8,571.9 L1162.7,559.6 L1184.7,551.0 L1206.6,530.1 L1228.6,528.8 L1250.6,523.8 L1272.5,528.2 L1294.5,520.9 L1316.5,509.3" fill="none" stroke="#2a78d6" stroke-width="21.04" stroke-linejoin="round"/>
<circle cx="372.0" cy="1391.1" r="21.0" fill="#2a78d6" stroke="white" stroke-width="8.66"/>
<circle cx="437.9" cy="1363.4" r="21.0" fill="#2a78d6" stroke="white" stroke-width="8.66"/>
<circle cx="503.8" cy="1297.6" r="21.0" fill="#2a78d6" stroke="white" stroke-width="8.66"/>
<circle cx="569.7" cy="1216.0" r="21.0" fill="#2a78d6" stroke="white" stroke-width="8.66"/>
<circle cx="635.6" cy="1136.8" r="21.0" fill="#2a78d6" stroke="white" stroke-width="8.66"/>
<circle cx="701.5" cy="1061.8" r="21.0" fill="#2a78d6" stroke="white" stroke-width="8.66"/>
<circle cx="767.4" cy="984.7" r="21.0" fill="#2a78d6" stroke="white" stroke-width="8.66"/>
<circle cx="833.2" cy="902.2" r="21.0" fill="#2a78d6" stroke="white" stroke-width="8.66"/>
<circle cx="899.1" cy="814.7" r="21.0" fill="#2a78d6" stroke="white" stroke-width="8.66"/>
<circle cx="965.0" cy="740.0" r="21.0" fill="#2a78d6" stroke="white" stroke-width="8.66"/>
<circle cx="1030.9" cy="667.5" r="21.0" fill="#2a78d6" stroke="white" stroke-width="8.66"/>
<circle cx="1096.8" cy="609.2" r="21.0" fill="#2a78d6" stroke="white" stroke-width="8.66"/>
<circle cx="1162.7" cy="559.6" r="21.0" fill="#2a78d6" stroke="white" stroke-width="8.66"/>
<circle cx="1228.6" cy="528.8" r="21.0" fill="#2a78d6" stroke="white" stroke-width="8.66"/>
<circle cx="1294.5" cy="520.9" r="21.0" fill="#2a78d6" stroke="white" stroke-width="8.66"/>
<circle cx="1316.5" cy="509.3" r="21.0" fill="#2a78d6" stroke="white" stroke-width="8.66"/>
<polygon points="372.0,1391.1 394.0,1260.8 415.9,1142.3 437.9,1052.6 459.9,977.9 481.8,907.1 503.8,849.2 525.8,789.3 547.7,766.6 569.7,717.4 591.6,692.3 613.6,693.6 635.6,664.0 657.5,657.9 679.5,622.2 701.5,628.3 723.4,612.7 745.4,617.6 767.4,600.3 789.3,599.7 811.3,583.5 833.2,600.6 855.2,600.3 877.2,604.9 899.1,607.2 921.1,597.7 943.1,619.7 965.0,603.5 987.0,592.2 1009.0,579.9 1030.9,599.2 1052.9,612.0 1074.9,558.7 1096.8,605.8 1118.8,587.2 1140.8,572.6 1162.7,563.1 1184.7,556.1 1206.6,548.2 1228.6,513.8 1250.6,525.8 1272.5,518.0 1294.5,473.6 1316.5,463.4 1338.4,442.6 1360.4,438.2 1360.4,816.9 1338.4,837.2 1316.5,819.4 1294.5,833.5 1272.5,830.5 1250.6,809.4 1228.6,788.6 1206.6,780.7 1184.7,767.7 1162.7,780.6 1140.8,774.9 1118.8,774.0 1096.8,749.7 1074.9,764.4 1052.9,762.2 1030.9,753.1 1009.0,772.7 987.0,759.2 965.0,757.3 943.1,760.2 921.1,759.3 899.1,763.6 877.2,756.1 855.2,749.4 833.2,761.9 811.3,768.6 789.3,767.6 767.4,769.4 745.4,787.4 723.4,789.0 701.5,801.4 679.5,812.7 657.5,816.2 635.6,831.8 613.6,856.3 591.6,873.2 569.7,887.6 547.7,929.6 525.8,956.7 503.8,991.4 481.8,1035.7 459.9,1083.4 437.9,1145.7 415.9,1216.1 394.0,1306.7 372.0,1391.1" fill="#1baf7a" fill-opacity="0.16" stroke="none"/>
<path d="M1360.4,627.6 L1382.4,608.4 L1404.3,589.7 L1426.3,596.6 L1448.2,673.5 L1470.2,737.1 L1492.2,791.8 L1514.1,732.9" fill="none" stroke="#1baf7a" stroke-width="14.85" stroke-opacity="0.35" stroke-dasharray="30.9,24.8"/>
<path d="M372.0,1391.1 L394.0,1283.7 L415.9,1179.2 L437.9,1099.2 L459.9,1030.6 L481.8,971.4 L503.8,920.3 L525.8,873.0 L547.7,848.1 L569.7,802.5 L591.6,782.7 L613.6,775.0 L635.6,747.9 L657.5,737.1 L679.5,717.5 L701.5,714.8 L723.4,700.8 L745.4,702.5 L767.4,684.8 L789.3,683.6 L811.3,676.0 L833.2,681.3 L855.2,674.9 L877.2,680.5 L899.1,685.4 L921.1,678.5 L943.1,689.9 L965.0,680.4 L987.0,675.7 L1009.0,676.3 L1030.9,676.1 L1052.9,687.1 L1074.9,661.6 L1096.8,677.7 L1118.8,680.6 L1140.8,673.7 L1162.7,671.9 L1184.7,661.9 L1206.6,664.4 L1228.6,651.2 L1250.6,667.6 L1272.5,674.2 L1294.5,653.6 L1316.5,641.4 L1338.4,639.9 L1360.4,627.6" fill="none" stroke="#1baf7a" stroke-width="21.04" stroke-linejoin="round"/>
<circle cx="372.0" cy="1391.1" r="21.0" fill="#1baf7a" stroke="white" stroke-width="8.66"/>
<circle cx="437.9" cy="1099.2" r="21.0" fill="#1baf7a" stroke="white" stroke-width="8.66"/>
<circle cx="503.8" cy="920.3" r="21.0" fill="#1baf7a" stroke="white" stroke-width="8.66"/>
<circle cx="569.7" cy="802.5" r="21.0" fill="#1baf7a" stroke="white" stroke-width="8.66"/>
<circle cx="635.6" cy="747.9" r="21.0" fill="#1baf7a" stroke="white" stroke-width="8.66"/>
<circle cx="701.5" cy="714.8" r="21.0" fill="#1baf7a" stroke="white" stroke-width="8.66"/>
<circle cx="767.4" cy="684.8" r="21.0" fill="#1baf7a" stroke="white" stroke-width="8.66"/>
<circle cx="833.2" cy="681.3" r="21.0" fill="#1baf7a" stroke="white" stroke-width="8.66"/>
<circle cx="899.1" cy="685.4" r="21.0" fill="#1baf7a" stroke="white" stroke-width="8.66"/>
<circle cx="965.0" cy="680.4" r="21.0" fill="#1baf7a" stroke="white" stroke-width="8.66"/>
<circle cx="1030.9" cy="676.1" r="21.0" fill="#1baf7a" stroke="white" stroke-width="8.66"/>
<circle cx="1096.8" cy="677.7" r="21.0" fill="#1baf7a" stroke="white" stroke-width="8.66"/>
<circle cx="1162.7" cy="671.9" r="21.0" fill="#1baf7a" stroke="white" stroke-width="8.66"/>
<circle cx="1228.6" cy="651.2" r="21.0" fill="#1baf7a" stroke="white" stroke-width="8.66"/>
<circle cx="1294.5" cy="653.6" r="21.0" fill="#1baf7a" stroke="white" stroke-width="8.66"/>
<circle cx="1360.4" cy="627.6" r="21.0" fill="#1baf7a" stroke="white" stroke-width="8.66"/>
<circle cx="1360.4" cy="627.6" r="21.0" fill="#1baf7a" stroke="white" stroke-width="8.66"/>
<polygon points="372.0,1391.1 394.0,1382.0 415.9,1369.6 437.9,1343.6 459.9,1322.5 481.8,1290.3 503.8,1262.6 525.8,1222.2 547.7,1198.2 569.7,1154.6 591.6,1142.4 613.6,1102.8 635.6,1072.1 657.5,1044.2 679.5,1022.8 701.5,997.3 723.4,966.9 745.4,950.7 767.4,913.3 789.3,888.0 811.3,851.0 833.2,824.4 855.2,797.1 877.2,753.4 899.1,709.9 921.1,677.3 943.1,645.4 965.0,618.0 987.0,582.0 1009.0,553.3 1030.9,544.1 1052.9,499.3 1074.9,476.5 1096.8,465.0 1118.8,419.8 1140.8,408.7 1162.7,381.4 1184.7,359.6 1206.6,355.3 1228.6,329.9 1250.6,332.2 1272.5,321.2 1294.5,301.7 1316.5,280.0 1338.4,283.3 1338.4,481.4 1316.5,495.4 1294.5,520.6 1272.5,529.9 1250.6,552.5 1228.6,565.5 1206.6,567.3 1184.7,584.9 1162.7,598.5 1140.8,613.9 1118.8,630.2 1096.8,638.8 1074.9,654.4 1052.9,665.0 1030.9,685.4 1009.0,709.0 987.0,728.6 965.0,740.6 943.1,761.4 921.1,790.5 899.1,804.6 877.2,840.8 855.2,859.5 833.2,889.5 811.3,924.7 789.3,959.5 767.4,996.4 745.4,1021.9 723.4,1050.4 701.5,1079.4 679.5,1108.7 657.5,1130.5 635.6,1174.4 613.6,1189.5 591.6,1221.1 569.7,1241.9 547.7,1272.7 525.8,1296.0 503.8,1321.3 481.8,1342.5 459.9,1349.8 437.9,1368.0 415.9,1382.6 394.0,1387.8 372.0,1391.1" fill="#eda100" fill-opacity="0.16" stroke="none"/>
<path d="M1338.4,382.4 L1360.4,383.6 L1382.4,389.8 L1404.3,394.6 L1426.3,411.5 L1448.2,415.9 L1470.2,409.7 L1492.2,553.4 L1514.1,749.6 L1536.1,766.4" fill="none" stroke="#eda100" stroke-width="14.85" stroke-opacity="0.35" stroke-dasharray="30.9,24.8"/>
<path d="M372.0,1391.1 L394.0,1384.9 L415.9,1376.1 L437.9,1355.8 L459.9,1336.2 L481.8,1316.4 L503.8,1291.9 L525.8,1259.1 L547.7,1235.4 L569.7,1198.3 L591.6,1181.8 L613.6,1146.2 L635.6,1123.3 L657.5,1087.4 L679.5,1065.7 L701.5,1038.3 L723.4,1008.7 L745.4,986.3 L767.4,954.9 L789.3,923.8 L811.3,887.9 L833.2,857.0 L855.2,828.3 L877.2,797.1 L899.1,757.3 L921.1,733.9 L943.1,703.4 L965.0,679.3 L987.0,655.3 L1009.0,631.2 L1030.9,614.7 L1052.9,582.2 L1074.9,565.4 L1096.8,551.9 L1118.8,525.0 L1140.8,511.3 L1162.7,490.0 L1184.7,472.2 L1206.6,461.3 L1228.6,447.7 L1250.6,442.4 L1272.5,425.5 L1294.5,411.1 L1316.5,387.7 L1338.4,382.4" fill="none" stroke="#eda100" stroke-width="21.04" stroke-linejoin="round"/>
<circle cx="372.0" cy="1391.1" r="21.0" fill="#eda100" stroke="white" stroke-width="8.66"/>
<circle cx="437.9" cy="1355.8" r="21.0" fill="#eda100" stroke="white" stroke-width="8.66"/>
<circle cx="503.8" cy="1291.9" r="21.0" fill="#eda100" stroke="white" stroke-width="8.66"/>
<circle cx="569.7" cy="1198.3" r="21.0" fill="#eda100" stroke="white" stroke-width="8.66"/>
<circle cx="635.6" cy="1123.3" r="21.0" fill="#eda100" stroke="white" stroke-width="8.66"/>
<circle cx="701.5" cy="1038.3" r="21.0" fill="#eda100" stroke="white" stroke-width="8.66"/>
<circle cx="767.4" cy="954.9" r="21.0" fill="#eda100" stroke="white" stroke-width="8.66"/>
<circle cx="833.2" cy="857.0" r="21.0" fill="#eda100" stroke="white" stroke-width="8.66"/>
<circle cx="899.1" cy="757.3" r="21.0" fill="#eda100" stroke="white" stroke-width="8.66"/>
<circle cx="965.0" cy="679.3" r="21.0" fill="#eda100" stroke="white" stroke-width="8.66"/>
<circle cx="1030.9" cy="614.7" r="21.0" fill="#eda100" stroke="white" stroke-width="8.66"/>
<circle cx="1096.8" cy="551.9" r="21.0" fill="#eda100" stroke="white" stroke-width="8.66"/>
<circle cx="1162.7" cy="490.0" r="21.0" fill="#eda100" stroke="white" stroke-width="8.66"/>
<circle cx="1228.6" cy="447.7" r="21.0" fill="#eda100" stroke="white" stroke-width="8.66"/>
<circle cx="1294.5" cy="411.1" r="21.0" fill="#eda100" stroke="white" stroke-width="8.66"/>
<circle cx="1338.4" cy="382.4" r="21.0" fill="#eda100" stroke="white" stroke-width="8.66"/>
<text xml:space="preserve" x="1651.5" y="410.9" font-size="79.2" fill="#eda100">SOM-line + LiP</text>
<text xml:space="preserve" x="1651.5" y="537.8" font-size="79.2" fill="#2a78d6">SOM-line</text>
<text xml:space="preserve" x="1651.5" y="656.1" font-size="79.2" fill="#1baf7a">LiP</text>
<text xml:space="preserve" x="1651.5" y="918.4" font-size="79.2" fill="#52514e">Director</text>
<text x="3225.0" y="122.5" font-size="111.4" fill="#0b0b0b" text-anchor="middle">Hopper Stand</text>
<line x1="2610.0" y1="1391.1" x2="3840.0" y2="1391.1" stroke="#e6e5e1" stroke-width="6.19"/>
<text x="2560.5" y="1422.3" font-size="86.6" fill="#52514e" text-anchor="end">0</text>
<line x1="2610.0" y1="1202.8" x2="3840.0" y2="1202.8" stroke="#e6e5e1" stroke-width="6.19"/>
<text x="2560.5" y="1234.0" font-size="86.6" fill="#52514e" text-anchor="end">0.05</text>
<line x1="2610.0" y1="1014.6" x2="3840.0" y2="1014.6" stroke="#e6e5e1" stroke-width="6.19"/>
<text x="2560.5" y="1045.8" font-size="86.6" fill="#52514e" text-anchor="end">0.1</text>
<line x1="2610.0" y1="826.3" x2="3840.0" y2="826.3" stroke="#e6e5e1" stroke-width="6.19"/>
<text x="2560.5" y="857.5" font-size="86.6" fill="#52514e" text-anchor="end">0.15</text>
<line x1="2610.0" y1="638.1" x2="3840.0" y2="638.1" stroke="#e6e5e1" stroke-width="6.19"/>
<text x="2560.5" y="669.3" font-size="86.6" fill="#52514e" text-anchor="end">0.2</text>
<line x1="2610.0" y1="449.8" x2="3840.0" y2="449.8" stroke="#e6e5e1" stroke-width="6.19"/>
<text x="2560.5" y="481.0" font-size="86.6" fill="#52514e" text-anchor="end">0.25</text>
<line x1="2610.0" y1="261.5" x2="3840.0" y2="261.5" stroke="#e6e5e1" stroke-width="6.19"/>
<text x="2560.5" y="292.7" font-size="86.6" fill="#52514e" text-anchor="end">0.3</text>
<text x="2610.0" y="1529.7" font-size="86.6" fill="#52514e" text-anchor="middle">0</text>
<text x="2829.6" y="1529.7" font-size="86.6" fill="#52514e" text-anchor="middle">10</text>
<text x="3049.3" y="1529.7" font-size="86.6" fill="#52514e" text-anchor="middle">20</text>
<text x="3268.9" y="1529.7" font-size="86.6" fill="#52514e" text-anchor="middle">30</text>
<text x="3488.6" y="1529.7" font-size="86.6" fill="#52514e" text-anchor="middle">40</text>
<text x="3708.2" y="1529.7" font-size="86.6" fill="#52514e" text-anchor="middle">50</text>
<text x="3225.0" y="1678.2" font-size="92.8" fill="#0b0b0b" text-anchor="middle">total index distance across all blocks</text>
<line x1="2610.0" y1="1391.1" x2="3840.0" y2="1391.1" stroke="#8a8880" stroke-width="8.66"/>
<polygon points="2610.0,1391.1 2632.0,1371.7 2653.9,1315.1 2675.9,1257.7 2697.9,1205.4 2719.8,1195.5 2741.8,1143.8 2763.8,1140.8 2785.7,1118.5 2807.7,1111.6 2829.6,1111.0 2851.6,1105.9 2873.6,1092.9 2895.5,1088.3 2917.5,1090.7 2939.5,1070.0 2961.4,1081.4 2983.4,1073.6 3005.4,1076.3 3027.3,1065.6 3049.3,1076.9 3071.2,1079.7 3093.2,1067.7 3115.2,1077.1 3137.1,1064.7 3159.1,1060.2 3181.1,1077.1 3203.0,1065.6 3225.0,1053.3 3247.0,1061.0 3268.9,1049.0 3290.9,1049.4 3312.9,1041.7 3334.8,1050.3 3356.8,1039.0 3378.8,1032.8 3400.7,1042.0 3422.7,1051.6 3444.6,1041.8 3466.6,1045.9 3488.6,1042.0 3510.5,1014.7 3532.5,999.0 3554.5,1013.7 3576.4,994.6 3576.4,1186.8 3554.5,1164.4 3532.5,1161.1 3510.5,1135.7 3488.6,1136.4 3466.6,1132.2 3444.6,1109.9 3422.7,1095.4 3400.7,1104.8 3378.8,1098.3 3356.8,1096.8 3334.8,1098.9 3312.9,1113.8 3290.9,1097.7 3268.9,1107.2 3247.0,1103.0 3225.0,1109.7 3203.0,1114.6 3181.1,1117.4 3159.1,1123.2 3137.1,1119.0 3115.2,1123.4 3093.2,1139.4 3071.2,1138.7 3049.3,1142.0 3027.3,1144.0 3005.4,1130.9 2983.4,1148.7 2961.4,1145.2 2939.5,1152.7 2917.5,1150.0 2895.5,1152.0 2873.6,1165.8 2851.6,1161.4 2829.6,1177.2 2807.7,1171.3 2785.7,1190.9 2763.8,1202.0 2741.8,1220.8 2719.8,1241.0 2697.9,1262.3 2675.9,1307.9 2653.9,1348.9 2632.0,1379.2 2610.0,1391.1" fill="#52514e" fill-opacity="0.16" stroke="none"/>
<path d="M3576.4,1090.7 L3598.4,1062.0 L3620.4,1015.1 L3642.3,1092.1 L3664.3,1168.3 L3686.2,1170.1 L3708.2,1168.1 L3730.2,1275.3 L3752.1,1192.9 L3774.1,1308.7" fill="none" stroke="#52514e" stroke-width="14.85" stroke-opacity="0.35" stroke-dasharray="30.9,24.8"/>
<path d="M2610.0,1391.1 L2632.0,1375.5 L2653.9,1332.0 L2675.9,1282.8 L2697.9,1233.8 L2719.8,1218.2 L2741.8,1182.3 L2763.8,1171.4 L2785.7,1154.7 L2807.7,1141.4 L2829.6,1144.1 L2851.6,1133.6 L2873.6,1129.4 L2895.5,1120.1 L2917.5,1120.3 L2939.5,1111.4 L2961.4,1113.3 L2983.4,1111.2 L3005.4,1103.6 L3027.3,1104.8 L3049.3,1109.5 L3071.2,1109.2 L3093.2,1103.6 L3115.2,1100.3 L3137.1,1091.9 L3159.1,1091.7 L3181.1,1097.2 L3203.0,1090.1 L3225.0,1081.5 L3247.0,1082.0 L3268.9,1078.1 L3290.9,1073.5 L3312.9,1077.7 L3334.8,1074.6 L3356.8,1067.9 L3378.8,1065.6 L3400.7,1073.4 L3422.7,1073.5 L3444.6,1075.8 L3466.6,1089.1 L3488.6,1089.2 L3510.5,1075.2 L3532.5,1080.1 L3554.5,1089.1 L3576.4,1090.7" fill="none" stroke="#52514e" stroke-width="21.04" stroke-linejoin="round"/>
<circle cx="2610.0" cy="1391.1" r="21.0" fill="#52514e" stroke="white" stroke-width="8.66"/>
<circle cx="2675.9" cy="1282.8" r="21.0" fill="#52514e" stroke="white" stroke-width="8.66"/>
<circle cx="2741.8" cy="1182.3" r="21.0" fill="#52514e" stroke="white" stroke-width="8.66"/>
<circle cx="2807.7" cy="1141.4" r="21.0" fill="#52514e" stroke="white" stroke-width="8.66"/>
<circle cx="2873.6" cy="1129.4" r="21.0" fill="#52514e" stroke="white" stroke-width="8.66"/>
<circle cx="2939.5" cy="1111.4" r="21.0" fill="#52514e" stroke="white" stroke-width="8.66"/>
<circle cx="3005.4" cy="1103.6" r="21.0" fill="#52514e" stroke="white" stroke-width="8.66"/>
<circle cx="3071.2" cy="1109.2" r="21.0" fill="#52514e" stroke="white" stroke-width="8.66"/>
<circle cx="3137.1" cy="1091.9" r="21.0" fill="#52514e" stroke="white" stroke-width="8.66"/>
<circle cx="3203.0" cy="1090.1" r="21.0" fill="#52514e" stroke="white" stroke-width="8.66"/>
<circle cx="3268.9" cy="1078.1" r="21.0" fill="#52514e" stroke="white" stroke-width="8.66"/>
<circle cx="3334.8" cy="1074.6" r="21.0" fill="#52514e" stroke="white" stroke-width="8.66"/>
<circle cx="3400.7" cy="1073.4" r="21.0" fill="#52514e" stroke="white" stroke-width="8.66"/>
<circle cx="3466.6" cy="1089.1" r="21.0" fill="#52514e" stroke="white" stroke-width="8.66"/>
<circle cx="3532.5" cy="1080.1" r="21.0" fill="#52514e" stroke="white" stroke-width="8.66"/>
<circle cx="3576.4" cy="1090.7" r="21.0" fill="#52514e" stroke="white" stroke-width="8.66"/>
<polygon points="2610.0,1391.1 2632.0,1365.9 2653.9,1337.4 2675.9,1309.2 2697.9,1272.0 2719.8,1243.5 2741.8,1206.3 2763.8,1180.1 2785.7,1149.8 2807.7,1115.5 2829.6,1097.9 2851.6,1070.3 2873.6,1056.2 2895.5,1031.6 2917.5,1010.9 2939.5,998.7 2961.4,983.8 2983.4,969.7 3005.4,952.7 3027.3,941.4 3049.3,928.5 3071.2,918.7 3093.2,906.9 3115.2,892.5 3137.1,879.2 3159.1,859.0 3181.1,852.0 3203.0,823.8 3225.0,810.3 3247.0,782.5 3268.9,754.9 3290.9,704.6 3312.9,681.9 3334.8,646.9 3356.8,621.3 3378.8,588.5 3400.7,542.4 3422.7,532.0 3444.6,497.7 3466.6,473.4 3488.6,461.1 3510.5,454.3 3532.5,427.0 3554.5,392.3 3554.5,772.4 3532.5,796.1 3510.5,817.6 3488.6,829.6 3466.6,849.0 3444.6,851.6 3422.7,856.5 3400.7,861.8 3378.8,858.3 3356.8,862.6 3334.8,866.9 3312.9,869.7 3290.9,875.9 3268.9,879.1 3247.0,892.6 3225.0,898.1 3203.0,913.5 3181.1,918.2 3159.1,943.9 3137.1,967.4 3115.2,981.1 3093.2,992.1 3071.2,1019.6 3049.3,1032.5 3027.3,1064.0 3005.4,1070.2 2983.4,1097.8 2961.4,1121.5 2939.5,1133.2 2917.5,1146.8 2895.5,1173.9 2873.6,1183.4 2851.6,1208.6 2829.6,1224.8 2807.7,1240.9 2785.7,1260.0 2763.8,1277.7 2741.8,1305.2 2719.8,1317.0 2697.9,1336.4 2675.9,1354.5 2653.9,1370.7 2632.0,1382.1 2610.0,1391.1" fill="#2a78d6" fill-opacity="0.16" stroke="none"/>
<path d="M3554.5,582.4 L3576.4,560.4 L3598.4,523.4 L3620.4,479.8 L3642.3,425.0 L3664.3,364.6 L3686.2,335.3 L3708.2,296.2 L3730.2,204.0 L3752.1,167.1" fill="none" stroke="#2a78d6" stroke-width="14.85" stroke-opacity="0.35" stroke-dasharray="30.9,24.8"/>
<path d="M2610.0,1391.1 L2632.0,1374.0 L2653.9,1354.0 L2675.9,1331.8 L2697.9,1304.2 L2719.8,1280.3 L2741.8,1255.7 L2763.8,1228.9 L2785.7,1204.9 L2807.7,1178.2 L2829.6,1161.4 L2851.6,1139.5 L2873.6,1119.8 L2895.5,1102.8 L2917.5,1078.8 L2939.5,1066.0 L2961.4,1052.6 L2983.4,1033.8 L3005.4,1011.4 L3027.3,1002.7 L3049.3,980.5 L3071.2,969.2 L3093.2,949.5 L3115.2,936.8 L3137.1,923.3 L3159.1,901.5 L3181.1,885.1 L3203.0,868.6 L3225.0,854.2 L3247.0,837.6 L3268.9,817.0 L3290.9,790.3 L3312.9,775.8 L3334.8,756.9 L3356.8,741.9 L3378.8,723.4 L3400.7,702.1 L3422.7,694.2 L3444.6,674.7 L3466.6,661.2 L3488.6,645.4 L3510.5,635.9 L3532.5,611.6 L3554.5,582.4" fill="none" stroke="#2a78d6" stroke-width="21.04" stroke-linejoin="round"/>
<circle cx="2610.0" cy="1391.1" r="21.0" fill="#2a78d6" stroke="white" stroke-width="8.66"/>
<circle cx="2675.9" cy="1331.8" r="21.0" fill="#2a78d6" stroke="white" stroke-width="8.66"/>
<circle cx="2741.8" cy="1255.7" r="21.0" fill="#2a78d6" stroke="white" stroke-width="8.66"/>
<circle cx="2807.7" cy="1178.2" r="21.0" fill="#2a78d6" stroke="white" stroke-width="8.66"/>
<circle cx="2873.6" cy="1119.8" r="21.0" fill="#2a78d6" stroke="white" stroke-width="8.66"/>
<circle cx="2939.5" cy="1066.0" r="21.0" fill="#2a78d6" stroke="white" stroke-width="8.66"/>
<circle cx="3005.4" cy="1011.4" r="21.0" fill="#2a78d6" stroke="white" stroke-width="8.66"/>
<circle cx="3071.2" cy="969.2" r="21.0" fill="#2a78d6" stroke="white" stroke-width="8.66"/>
<circle cx="3137.1" cy="923.3" r="21.0" fill="#2a78d6" stroke="white" stroke-width="8.66"/>
<circle cx="3203.0" cy="868.6" r="21.0" fill="#2a78d6" stroke="white" stroke-width="8.66"/>
<circle cx="3268.9" cy="817.0" r="21.0" fill="#2a78d6" stroke="white" stroke-width="8.66"/>
<circle cx="3334.8" cy="756.9" r="21.0" fill="#2a78d6" stroke="white" stroke-width="8.66"/>
<circle cx="3400.7" cy="702.1" r="21.0" fill="#2a78d6" stroke="white" stroke-width="8.66"/>
<circle cx="3466.6" cy="661.2" r="21.0" fill="#2a78d6" stroke="white" stroke-width="8.66"/>
<circle cx="3532.5" cy="611.6" r="21.0" fill="#2a78d6" stroke="white" stroke-width="8.66"/>
<circle cx="3554.5" cy="582.4" r="21.0" fill="#2a78d6" stroke="white" stroke-width="8.66"/>
<polygon points="2610.0,1391.1 2632.0,1302.2 2653.9,1236.8 2675.9,1167.9 2697.9,1139.9 2719.8,1106.6 2741.8,1056.2 2763.8,1028.1 2785.7,1026.1 2807.7,1012.6 2829.6,984.1 2851.6,994.0 2873.6,978.6 2895.5,972.6 2917.5,968.0 2939.5,972.1 2961.4,944.9 2983.4,942.6 3005.4,960.5 3027.3,957.5 3049.3,944.3 3071.2,929.2 3093.2,937.0 3115.2,939.7 3137.1,913.8 3159.1,908.3 3181.1,901.5 3203.0,913.3 3225.0,894.0 3247.0,884.9 3268.9,875.2 3290.9,888.2 3312.9,870.4 3334.8,860.8 3356.8,857.5 3378.8,849.8 3400.7,848.3 3422.7,866.4 3444.6,850.3 3466.6,872.5 3488.6,855.0 3510.5,849.9 3532.5,815.1 3554.5,806.4 3576.4,773.5 3598.4,756.7 3598.4,1037.0 3576.4,1038.3 3554.5,1037.7 3532.5,1031.5 3510.5,1009.3 3488.6,990.7 3466.6,989.8 3444.6,968.9 3422.7,980.0 3400.7,974.6 3378.8,979.2 3356.8,980.5 3334.8,984.8 3312.9,971.8 3290.9,978.5 3268.9,998.1 3247.0,976.5 3225.0,986.3 3203.0,979.4 3181.1,972.6 3159.1,971.4 3137.1,970.2 3115.2,973.7 3093.2,982.8 3071.2,971.1 3049.3,994.1 3027.3,992.2 3005.4,993.7 2983.4,1015.0 2961.4,1024.3 2939.5,1031.8 2917.5,1043.6 2895.5,1045.1 2873.6,1057.7 2851.6,1069.7 2829.6,1078.8 2807.7,1099.2 2785.7,1118.0 2763.8,1127.7 2741.8,1147.4 2719.8,1181.2 2697.9,1212.9 2675.9,1240.0 2653.9,1289.5 2632.0,1336.0 2610.0,1391.1" fill="#1baf7a" fill-opacity="0.16" stroke="none"/>
<path d="M3598.4,896.9 L3620.4,882.0 L3642.3,842.8 L3664.3,761.0 L3686.2,742.0 L3708.2,827.3 L3730.2,745.6 L3752.1,376.5" fill="none" stroke="#1baf7a" stroke-width="14.85" stroke-opacity="0.35" stroke-dasharray="30.9,24.8"/>
<path d="M2610.0,1391.1 L2632.0,1319.1 L2653.9,1263.2 L2675.9,1204.0 L2697.9,1176.4 L2719.8,1143.9 L2741.8,1101.8 L2763.8,1077.9 L2785.7,1072.1 L2807.7,1055.9 L2829.6,1031.5 L2851.6,1031.8 L2873.6,1018.1 L2895.5,1008.9 L2917.5,1005.8 L2939.5,1001.9 L2961.4,984.6 L2983.4,978.8 L3005.4,977.1 L3027.3,974.9 L3049.3,969.2 L3071.2,950.2 L3093.2,959.9 L3115.2,956.7 L3137.1,942.0 L3159.1,939.8 L3181.1,937.1 L3203.0,946.4 L3225.0,940.2 L3247.0,930.7 L3268.9,936.7 L3290.9,933.4 L3312.9,921.1 L3334.8,922.8 L3356.8,919.0 L3378.8,914.5 L3400.7,911.4 L3422.7,923.2 L3444.6,909.6 L3466.6,931.2 L3488.6,922.9 L3510.5,929.6 L3532.5,923.3 L3554.5,922.0 L3576.4,905.9 L3598.4,896.9" fill="none" stroke="#1baf7a" stroke-width="21.04" stroke-linejoin="round"/>
<circle cx="2610.0" cy="1391.1" r="21.0" fill="#1baf7a" stroke="white" stroke-width="8.66"/>
<circle cx="2675.9" cy="1204.0" r="21.0" fill="#1baf7a" stroke="white" stroke-width="8.66"/>
<circle cx="2741.8" cy="1101.8" r="21.0" fill="#1baf7a" stroke="white" stroke-width="8.66"/>
<circle cx="2807.7" cy="1055.9" r="21.0" fill="#1baf7a" stroke="white" stroke-width="8.66"/>
<circle cx="2873.6" cy="1018.1" r="21.0" fill="#1baf7a" stroke="white" stroke-width="8.66"/>
<circle cx="2939.5" cy="1001.9" r="21.0" fill="#1baf7a" stroke="white" stroke-width="8.66"/>
<circle cx="3005.4" cy="977.1" r="21.0" fill="#1baf7a" stroke="white" stroke-width="8.66"/>
<circle cx="3071.2" cy="950.2" r="21.0" fill="#1baf7a" stroke="white" stroke-width="8.66"/>
<circle cx="3137.1" cy="942.0" r="21.0" fill="#1baf7a" stroke="white" stroke-width="8.66"/>
<circle cx="3203.0" cy="946.4" r="21.0" fill="#1baf7a" stroke="white" stroke-width="8.66"/>
<circle cx="3268.9" cy="936.7" r="21.0" fill="#1baf7a" stroke="white" stroke-width="8.66"/>
<circle cx="3334.8" cy="922.8" r="21.0" fill="#1baf7a" stroke="white" stroke-width="8.66"/>
<circle cx="3400.7" cy="911.4" r="21.0" fill="#1baf7a" stroke="white" stroke-width="8.66"/>
<circle cx="3466.6" cy="931.2" r="21.0" fill="#1baf7a" stroke="white" stroke-width="8.66"/>
<circle cx="3532.5" cy="923.3" r="21.0" fill="#1baf7a" stroke="white" stroke-width="8.66"/>
<circle cx="3598.4" cy="896.9" r="21.0" fill="#1baf7a" stroke="white" stroke-width="8.66"/>
<circle cx="3598.4" cy="896.9" r="21.0" fill="#1baf7a" stroke="white" stroke-width="8.66"/>
<polygon points="2610.0,1391.1 2632.0,1371.3 2653.9,1344.3 2675.9,1326.3 2697.9,1300.8 2719.8,1269.3 2741.8,1235.6 2763.8,1223.9 2785.7,1192.6 2807.7,1169.3 2829.6,1131.9 2851.6,1123.6 2873.6,1092.3 2895.5,1070.4 2917.5,1054.8 2939.5,1035.5 2961.4,1024.4 2983.4,998.7 3005.4,995.8 3027.3,978.3 3049.3,955.8 3071.2,941.5 3093.2,932.0 3115.2,902.8 3137.1,883.5 3159.1,866.5 3181.1,823.7 3203.0,801.5 3225.0,791.1 3247.0,756.7 3268.9,728.2 3290.9,676.6 3312.9,640.6 3334.8,606.7 3356.8,574.4 3378.8,538.9 3400.7,485.6 3422.7,464.2 3444.6,425.2 3466.6,387.1 3488.6,383.6 3510.5,363.2 3532.5,320.5 3554.5,280.0 3554.5,675.2 3532.5,696.3 3510.5,711.2 3488.6,716.9 3466.6,728.8 3444.6,750.5 3422.7,777.4 3400.7,785.2 3378.8,823.2 3356.8,843.2 3334.8,858.6 3312.9,884.9 3290.9,919.9 3268.9,936.4 3247.0,958.2 3225.0,983.6 3203.0,1002.2 3181.1,1022.0 3159.1,1038.5 3137.1,1054.2 3115.2,1085.9 3093.2,1086.4 3071.2,1106.9 3049.3,1124.1 3027.3,1137.0 3005.4,1158.2 2983.4,1175.1 2961.4,1184.6 2939.5,1198.2 2917.5,1211.7 2895.5,1225.1 2873.6,1242.8 2851.6,1254.0 2829.6,1273.0 2807.7,1287.2 2785.7,1290.9 2763.8,1309.4 2741.8,1322.0 2719.8,1339.5 2697.9,1349.7 2675.9,1358.8 2653.9,1372.0 2632.0,1383.6 2610.0,1391.1" fill="#eda100" fill-opacity="0.16" stroke="none"/>
<path d="M3554.5,477.6 L3576.4,448.3 L3598.4,436.2 L3620.4,361.9 L3642.3,346.6 L3664.3,333.6 L3686.2,357.7 L3708.2,279.7 L3730.2,420.9 L3752.1,426.0" fill="none" stroke="#eda100" stroke-width="14.85" stroke-opacity="0.35" stroke-dasharray="30.9,24.8"/>
<path d="M2610.0,1391.1 L2632.0,1377.5 L2653.9,1358.2 L2675.9,1342.5 L2697.9,1325.3 L2719.8,1304.4 L2741.8,1278.8 L2763.8,1266.6 L2785.7,1241.8 L2807.7,1228.2 L2829.6,1202.5 L2851.6,1188.8 L2873.6,1167.5 L2895.5,1147.8 L2917.5,1133.2 L2939.5,1116.9 L2961.4,1104.5 L2983.4,1086.9 L3005.4,1077.0 L3027.3,1057.7 L3049.3,1040.0 L3071.2,1024.2 L3093.2,1009.2 L3115.2,994.4 L3137.1,968.8 L3159.1,952.5 L3181.1,922.9 L3203.0,901.8 L3225.0,887.3 L3247.0,857.5 L3268.9,832.3 L3290.9,798.2 L3312.9,762.7 L3334.8,732.6 L3356.8,708.8 L3378.8,681.1 L3400.7,635.4 L3422.7,620.8 L3444.6,587.8 L3466.6,558.0 L3488.6,550.3 L3510.5,537.2 L3532.5,508.4 L3554.5,477.6" fill="none" stroke="#eda100" stroke-width="21.04" stroke-linejoin="round"/>
<circle cx="2610.0" cy="1391.1" r="21.0" fill="#eda100" stroke="white" stroke-width="8.66"/>
<circle cx="2675.9" cy="1342.5" r="21.0" fill="#eda100" stroke="white" stroke-width="8.66"/>
<circle cx="2741.8" cy="1278.8" r="21.0" fill="#eda100" stroke="white" stroke-width="8.66"/>
<circle cx="2807.7" cy="1228.2" r="21.0" fill="#eda100" stroke="white" stroke-width="8.66"/>
<circle cx="2873.6" cy="1167.5" r="21.0" fill="#eda100" stroke="white" stroke-width="8.66"/>
<circle cx="2939.5" cy="1116.9" r="21.0" fill="#eda100" stroke="white" stroke-width="8.66"/>
<circle cx="3005.4" cy="1077.0" r="21.0" fill="#eda100" stroke="white" stroke-width="8.66"/>
<circle cx="3071.2" cy="1024.2" r="21.0" fill="#eda100" stroke="white" stroke-width="8.66"/>
<circle cx="3137.1" cy="968.8" r="21.0" fill="#eda100" stroke="white" stroke-width="8.66"/>
<circle cx="3203.0" cy="901.8" r="21.0" fill="#eda100" stroke="white" stroke-width="8.66"/>
<circle cx="3268.9" cy="832.3" r="21.0" fill="#eda100" stroke="white" stroke-width="8.66"/>
<circle cx="3334.8" cy="732.6" r="21.0" fill="#eda100" stroke="white" stroke-width="8.66"/>
<circle cx="3400.7" cy="635.4" r="21.0" fill="#eda100" stroke="white" stroke-width="8.66"/>
<circle cx="3466.6" cy="558.0" r="21.0" fill="#eda100" stroke="white" stroke-width="8.66"/>
<circle cx="3532.5" cy="508.4" r="21.0" fill="#eda100" stroke="white" stroke-width="8.66"/>
<circle cx="3554.5" cy="477.6" r="21.0" fill="#eda100" stroke="white" stroke-width="8.66"/>
<text xml:space="preserve" x="3889.5" y="506.1" font-size="79.2" fill="#eda100">SOM-line + LiP</text>
<text xml:space="preserve" x="3889.5" y="610.9" font-size="79.2" fill="#2a78d6">SOM-line</text>
<text xml:space="preserve" x="3889.5" y="925.4" font-size="79.2" fill="#1baf7a">LiP</text>
<text xml:space="preserve" x="3889.5" y="1119.2" font-size="79.2" fill="#52514e">Director</text>
</svg>