<svg xmlns="http://www.w3.org/2000/svg" width="4668" height="1714" viewBox="0 0 4668 1714" font-family="Helvetica,Arial,sans-serif">
<rect x="0" y="0" width="4668" height="1714" fill="white"/>
<text x="987.0" y="122.5" font-size="111.4" fill="#0b0b0b" text-anchor="middle">Cartpole Swingup</text>
<line x1="372.0" y1="1391.1" x2="1602.0" y2="1391.1" stroke="#e6e5e1" stroke-width="6.19"/>
<text x="322.5" y="1422.3" font-size="86.6" fill="#52514e" text-anchor="end">0</text>
<line x1="372.0" y1="1247.8" x2="1602.0" y2="1247.8" stroke="#e6e5e1" stroke-width="6.19"/>
<text x="322.5" y="1279.0" font-size="86.6" fill="#52514e" text-anchor="end">0.025</text>
<line x1="372.0" y1="1104.6" x2="1602.0" y2="1104.6" stroke="#e6e5e1" stroke-width="6.19"/>
<text x="322.5" y="1135.8" font-size="86.6" fill="#52514e" text-anchor="end">0.05</text>
<line x1="372.0" y1="961.4" x2="1602.0" y2="961.4" stroke="#e6e5e1" stroke-width="6.19"/>
<text x="322.5" y="992.6" font-size="86.6" fill="#52514e" text-anchor="end">0.075</text>
<line x1="372.0" y1="818.1" x2="1602.0" y2="818.1" stroke="#e6e5e1" stroke-width="6.19"/>
<text x="322.5" y="849.3" font-size="86.6" fill="#52514e" text-anchor="end">0.1</text>
<line x1="372.0" y1="674.9" x2="1602.0" y2="674.9" stroke="#e6e5e1" stroke-width="6.19"/>
<text x="322.5" y="706.1" font-size="86.6" fill="#52514e" text-anchor="end">0.125</text>
<line x1="372.0" y1="531.6" x2="1602.0" y2="531.6" stroke="#e6e5e1" stroke-width="6.19"/>
<text x="322.5" y="562.8" font-size="86.6" fill="#52514e" text-anchor="end">0.15</text>
<line x1="372.0" y1="388.4" x2="1602.0" y2="388.4" stroke="#e6e5e1" stroke-width="6.19"/>
<text x="322.5" y="419.6" font-size="86.6" fill="#52514e" text-anchor="end">0.175</text>
<line x1="372.0" y1="245.2" x2="1602.0" y2="245.2" stroke="#e6e5e1" stroke-width="6.19"/>
<text x="322.5" y="276.4" font-size="86.6" fill="#52514e" text-anchor="end">0.2</text>
<text x="372.0" y="1529.7" font-size="86.6" fill="#52514e" text-anchor="middle">1</text>
<text x="577.0" y="1529.7" font-size="86.6" fill="#52514e" text-anchor="middle">2</text>
<text x="782.0" y="1529.7" font-size="86.6" fill="#52514e" text-anchor="middle">3</text>
<text x="987.0" y="1529.7" font-size="86.6" fill="#52514e" text-anchor="middle">4</text>
<text x="1192.0" y="1529.7" font-size="86.6" fill="#52514e" text-anchor="middle">5</text>
<text x="1397.0" y="1529.7" font-size="86.6" fill="#52514e" text-anchor="middle">6</text>
<text x="1602.0" y="1529.7" font-size="86.6" fill="#52514e" text-anchor="middle">7</text>
<text x="987.0" y="1678.2" font-size="92.8" fill="#0b0b0b" text-anchor="middle">code index distance k</text>
<text x="111.4" y="791.1" font-size="92.8" fill="#0b0b0b" text-anchor="middle" transform="rotate(-90 111.4 791.1)">decoded goal shift (MSE)</text>
<line x1="372.0" y1="1391.1" x2="1602.0" y2="1391.1" stroke="#8a8880" stroke-width="8.66"/>
<path d="M372.0,1348.5 L577.0,1344.8 L782.0,1347.3 L987.0,1348.2 L1192.0,1339.0 L1397.0,1341.6 L1602.0,1343.9" fill="none" stroke="#52514e" stroke-width="21.04" stroke-linejoin="round"/>
<circle cx="372.0" cy="1348.5" r="21.0" fill="#52514e" stroke="white" stroke-width="8.66"/>
<circle cx="577.0" cy="1344.8" r="21.0" fill="#52514e" stroke="white" stroke-width="8.66"/>
<circle cx="782.0" cy="1347.3" r="21.0" fill="#52514e" stroke="white" stroke-width="8.66"/>
<circle cx="987.0" cy="1348.2" r="21.0" fill="#52514e" stroke="white" stroke-width="8.66"/>
<circle cx="1192.0" cy="1339.0" r="21.0" fill="#52514e" stroke="white" stroke-width="8.66"/>
<circle cx="1397.0" cy="1341.6" r="21.0" fill="#52514e" stroke="white" stroke-width="8.66"/>
<circle cx="1602.0" cy="1343.9" r="21.0" fill="#52514e" stroke="white" stroke-width="8.66"/>
<path d="M372.0,1380.2 L577.0,1320.2 L782.0,1213.4 L987.0,1066.8 L1192.0,891.7 L1397.0,642.5 L1602.0,481.6" fill="none" stroke="#2a78d6" stroke-width="21.04" stroke-linejoin="round"/>
<circle cx="372.0" cy="1380.2" r="21.0" fill="#2a78d6" stroke="white" stroke-width="8.66"/>
<circle cx="577.0" cy="1320.2" r="21.0" fill="#2a78d6" stroke="white" stroke-width="8.66"/>
<circle cx="782.0" cy="1213.4" r="21.0" fill="#2a78d6" stroke="white" stroke-width="8.66"/>
<circle cx="987.0" cy="1066.8" r="21.0" fill="#2a78d6" stroke="white" stroke-width="8.66"/>
<circle cx="1192.0" cy="891.7" r="21.0" fill="#2a78d6" stroke="white" stroke-width="8.66"/>
<circle cx="1397.0" cy="642.5" r="21.0" fill="#2a78d6" stroke="white" stroke-width="8.66"/>
<circle cx="1602.0" cy="481.6" r="21.0" fill="#2a78d6" stroke="white" stroke-width="8.66"/>
<path d="M372.0,1142.9 L577.0,1094.0 L782.0,1150.9 L987.0,1136.1 L1192.0,1190.2 L1397.0,1098.5 L1602.0,1138.4" fill="none" stroke="#1baf7a" stroke-width="21.04" stroke-linejoin="round"/>
<circle cx="372.0" cy="1142.9" r="21.0" fill="#1baf7a" stroke="white" stroke-width="8.66"/>
<circle cx="577.0" cy="1094.0" r="21.0" fill="#1baf7a" stroke="white" stroke-width="8.66"/>
<circle cx="782.0" cy="1150.9" r="21.0" fill="#1baf7a" stroke="white" stroke-width="8.66"/>
<circle cx="987.0" cy="1136.1" r="21.0" fill="#1baf7a" stroke="white" stroke-width="8.66"/>
<circle cx="1192.0" cy="1190.2" r="21.0" fill="#1baf7a" stroke="white" stroke-width="8.66"/>
<circle cx="1397.0" cy="1098.5" r="21.0" fill="#1baf7a" stroke="white" stroke-width="8.66"/>
<circle cx="1602.0" cy="1138.4" r="21.0" fill="#1baf7a" stroke="white" stroke-width="8.66"/>
<path d="M372.0,1375.7 L577.0,1303.6 L782.0,1200.6 L987.0,1059.4 L1192.0,894.2 L1397.0,696.0 L1602.0,453.1" fill="none" stroke="#eda100" stroke-width="21.04" stroke-linejoin="round"/>
<circle cx="372.0" cy="1375.7" r="21.0" fill="#eda100" stroke="white" stroke-width="8.66"/>
<circle cx="577.0" cy="1303.6" r="21.0" fill="#eda100" stroke="white" stroke-width="8.66"/>
<circle cx="782.0" cy="1200.6" r="21.0" fill="#eda100" stroke="white" stroke-width="8.66"/>
<circle cx="987.0" cy="1059.4" r="21.0" fill="#eda100" stroke="white" stroke-width="8.66"/>
<circle cx="1192.0" cy="894.2" r="21.0" fill="#eda100" stroke="white" stroke-width="8.66"/>
<circle cx="1397.0" cy="696.0" r="21.0" fill="#eda100" stroke="white" stroke-width="8.66"/>
<circle cx="1602.0" cy="453.1" r="21.0" fill="#eda100" stroke="white" stroke-width="8.66"/>
<text xml:space="preserve" x="1651.5" y="481.6" font-size="79.2" fill="#eda100">SOM-line + LiP</text>
<text xml:space="preserve" x="1651.5" y="572.7" font-size="79.2" fill="#2a78d6">SOM-line</text>
<text xml:space="preserve" x="1651.5" y="1166.9" font-size="79.2" fill="#1baf7a">LiP</text>
<text xml:space="preserve" x="1651.5" y="1372.4" font-size="79.2" fill="#52514e">Director</text>
<text x="3225.0" y="122.5" font-size="111.4" fill="#0b0b0b" text-anchor="middle">Hopper Stand</text>
<line x1="2610.0" y1="1391.1" x2="3840.0" y2="1391.1" stroke="#e6e5e1" stroke-width="6.19"/>
<text x="2560.5" y="1422.3" font-size="86.6" fill="#52514e" text-anchor="end">0</text>
<line x1="2610.0" y1="1189.9" x2="3840.0" y2="1189.9" stroke="#e6e5e1" stroke-width="6.19"/>
<text x="2560.5" y="1221.1" font-size="86.6" fill="#52514e" text-anchor="end">0.02</text>
<line x1="2610.0" y1="988.8" x2="3840.0" y2="988.8" stroke="#e6e5e1" stroke-width="6.19"/>
<text x="2560.5" y="1020.0" font-size="86.6" fill="#52514e" text-anchor="end">0.04</text>
<line x1="2610.0" y1="787.7" x2="3840.0" y2="787.7" stroke="#e6e5e1" stroke-width="6.19"/>
<text x="2560.5" y="818.9" font-size="86.6" fill="#52514e" text-anchor="end">0.06</text>
<line x1="2610.0" y1="586.5" x2="3840.0" y2="586.5" stroke="#e6e5e1" stroke-width="6.19"/>
<text x="2560.5" y="617.7" font-size="86.6" fill="#52514e" text-anchor="end">0.08</text>
<line x1="2610.0" y1="385.4" x2="3840.0" y2="385.4" stroke="#e6e5e1" stroke-width="6.19"/>
<text x="2560.5" y="416.6" font-size="86.6" fill="#52514e" text-anchor="end">0.1</text>
<text x="2610.0" y="1529.7" font-size="86.6" fill="#52514e" text-anchor="middle">1</text>
<text x="2815.0" y="1529.7" font-size="86.6" fill="#52514e" text-anchor="middle">2</text>
<text x="3020.0" y="1529.7" font-size="86.6" fill="#52514e" text-anchor="middle">3</text>
<text x="3225.0" y="1529.7" font-size="86.6" fill="#52514e" text-anchor="middle">4</text>
<text x="3430.0" y="1529.7" font-size="86.6" fill="#52514e" text-anchor="middle">5</text>
<text x="3635.0" y="1529.7" font-size="86.6" fill="#52514e" text-anchor="middle">6</text>
<text x="3840.0" y="1529.7" font-size="86.6" fill="#52514e" text-anchor="middle">7</text>
<text x="3225.0" y="1678.2" font-size="92.8" fill="#0b0b0b" text-anchor="middle">code index distance k</text>
<line x1="2610.0" y1="1391.1" x2="3840.0" y2="1391.1" stroke="#8a8880" stroke-width="8.66"/>
<path d="M2610.0,1338.8 L2815.0,1341.9 L3020.0,1339.8 L3225.0,1338.6 L3430.0,1333.3 L3635.0,1335.6 L3840.0,1353.9" fill="none" stroke="#52514e" stroke-width="21.04" stroke-linejoin="round"/>
<circle cx="2610.0" cy="1338.8" r="21.0" fill="#52514e" stroke="white" stroke-width="8.66"/>
<circle cx="2815.0" cy="1341.9" r="21.0" fill="#52514e" stroke="white" stroke-width="8.66"/>
<circle cx="3020.0" cy="1339.8" r="21.0" fill="#52514e" stroke="white" stroke-width="8.66"/>
<circle cx="3225.0" cy="1338.6" r="21.0" fill="#52514e" stroke="white" stroke-width="8.66"/>
<circle cx="3430.0" cy="1333.3" r="21.0" fill="#52514e" stroke="white" stroke-width="8.66"/>
<circle cx="3635.0" cy="1335.6" r="21.0" fill="#52514e" stroke="white" stroke-width="8.66"/>
<circle cx="3840.0" cy="1353.9" r="21.0" fill="#52514e" stroke="white" stroke-width="8.66"/>
<path d="M2610.0,1349.4 L2815.0,1264.2 L3020.0,1154.8 L3225.0,1039.1 L3430.0,922.2 L3635.0,785.3 L3840.0,573.6" fill="none" stroke="#2a78d6" stroke-width="21.04" stroke-linejoin="round"/>
<circle cx="2610.0" cy="1349.4" r="21.0" fill="#2a78d6" stroke="white" stroke-width="8.66"/>
<circle cx="2815.0" cy="1264.2" r="21.0" fill="#2a78d6" stroke="white" stroke-width="8.66"/>
<circle cx="3020.0" cy="1154.8" r="21.0" fill="#2a78d6" stroke="white" stroke-width="8.66"/>
<circle cx="3225.0" cy="1039.1" r="21.0" fill="#2a78d6" stroke="white" stroke-width="8.66"/>
<circle cx="3430.0" cy="922.2" r="21.0" fill="#2a78d6" stroke="white" stroke-width="8.66"/>
<circle cx="3635.0" cy="785.3" r="21.0" fill="#2a78d6" stroke="white" stroke-width="8.66"/>
<circle cx="3840.0" cy="573.6" r="21.0" fill="#2a78d6" stroke="white" stroke-width="8.66"/>
<path d="M2610.0,1233.2 L2815.0,1245.3 L3020.0,1208.4 L3225.0,1221.5 L3430.0,1189.1 L3635.0,1227.2 L3840.0,1163.0" fill="none" stroke="#1baf7a" stroke-width="21.04" stroke-linejoin="round"/>
<circle cx="2610.0" cy="1233.2" r="21.0" fill="#1baf7a" stroke="white" stroke-width="8.66"/>
<circle cx="2815.0" cy="1245.3" r="21.0" fill="#1baf7a" stroke="white" stroke-width="8.66"/>
<circle cx="3020.0" cy="1208.4" r="21.0" fill="#1baf7a" stroke="white" stroke-width="8.66"/>
<circle cx="3225.0" cy="1221.5" r="21.0" fill="#1baf7a" stroke="white" stroke-width="8.66"/>
<circle cx="3430.0" cy="1189.1" r="21.0" fill="#1baf7a" stroke="white" stroke-width="8.66"/>
<circle cx="3635.0" cy="1227.2" r="21.0" fill="#1baf7a" stroke="white" stroke-width="8.66"/>
<circle cx="3840.0" cy="1163.0" r="21.0" fill="#1baf7a" stroke="white" stroke-width="8.66"/>
<path d="M2610.0,1366.0 L2815.0,1298.8 L3020.0,1212.4 L3225.0,1101.4 L3430.0,1020.1 L3635.0,917.9 L3840.0,834.0" fill="none" stroke="#eda100" stroke-width="21.04" stroke-linejoin="round"/>
<circle cx="2610.0" cy="1366.0" r="21.0" fill="#eda100" stroke="white" stroke-width="8.66"/>
<circle cx="2815.0" cy="1298.8" r="21.0" fill="#eda100" stroke="white" stroke-width="8.66"/>
<circle cx="3020.0" cy="1212.4" r="21.0" fill="#eda100" stroke="white" stroke-width="8.66"/>
<circle cx="3225.0" cy="1101.4" r="21.0" fill="#eda100" stroke="white" stroke-width="8.66"/>
<circle cx="3430.0" cy="1020.1" r="21.0" fill="#eda100" stroke="white" stroke-width="8.66"/>
<circle cx="3635.0" cy="917.9" r="21.0" fill="#eda100" stroke="white" stroke-width="8.66"/>
<circle cx="3840.0" cy="834.0" r="21.0" fill="#eda100" stroke="white" stroke-width="8.66"/>
<text xml:space="preserve" x="3889.5" y="602.2" font-size="79.2" fill="#2a78d6">SOM-line</text>
<text xml:space="preserve" x="3889.5" y="862.5" font-size="79.2" fill="#eda100">SOM-line + LiP</text>
<text xml:space="preserve" x="3889.5" y="1191.5" font-size="79.2" fill="#1baf7a">LiP</text>
<text xml:space="preserve" x="3889.5" y="1382.4" font-size="79.2" fill="#52514e">Director</text>
</svg>