<svg xmlns="http://www.w3.org/2000/svg" width="4668" height="1714" viewBox="0 0 4668 1714" font-family="Helvetica,Arial,sans-serif">
<rect x="0" y="0" width="4668" height="1714" fill="white"/>
<text x="987.0" y="122.5" font-size="111.4" fill="#0b0b0b" text-anchor="middle">Cartpole Swingup</text>
<line x1="372.0" y1="1391.1" x2="1602.0" y2="1391.1" stroke="#e6e5e1" stroke-width="6.19"/>
<text x="322.5" y="1422.3" font-size="86.6" fill="#52514e" text-anchor="end">0</text>
<line x1="372.0" y1="1192.8" x2="1602.0" y2="1192.8" stroke="#e6e5e1" stroke-width="6.19"/>
<text x="322.5" y="1224.0" font-size="86.6" fill="#52514e" text-anchor="end">0.05</text>
<line x1="372.0" y1="994.4" x2="1602.0" y2="994.4" stroke="#e6e5e1" stroke-width="6.19"/>
<text x="322.5" y="1025.6" font-size="86.6" fill="#52514e" text-anchor="end">0.1</text>
<line x1="372.0" y1="796.1" x2="1602.0" y2="796.1" stroke="#e6e5e1" stroke-width="6.19"/>
<text x="322.5" y="827.3" font-size="86.6" fill="#52514e" text-anchor="end">0.15</text>
<line x1="372.0" y1="597.8" x2="1602.0" y2="597.8" stroke="#e6e5e1" stroke-width="6.19"/>
<text x="322.5" y="629.0" font-size="86.6" fill="#52514e" text-anchor="end">0.2</text>
<line x1="372.0" y1="399.5" x2="1602.0" y2="399.5" stroke="#e6e5e1" stroke-width="6.19"/>
<text x="322.5" y="430.7" font-size="86.6" fill="#52514e" text-anchor="end">0.25</text>
<line x1="372.0" y1="201.2" x2="1602.0" y2="201.2" stroke="#e6e5e1" stroke-width="6.19"/>
<text x="322.5" y="232.4" font-size="86.6" fill="#52514e" text-anchor="end">0.3</text>
<text x="372.0" y="1529.7" font-size="86.6" fill="#52514e" text-anchor="middle">0</text>
<text x="525.8" y="1529.7" font-size="86.6" fill="#52514e" text-anchor="middle">1</text>
<text x="679.5" y="1529.7" font-size="86.6" fill="#52514e" text-anchor="middle">2</text>
<text x="833.2" y="1529.7" font-size="86.6" fill="#52514e" text-anchor="middle">3</text>
<text x="987.0" y="1529.7" font-size="86.6" fill="#52514e" text-anchor="middle">4</text>
<text x="1140.8" y="1529.7" font-size="86.6" fill="#52514e" text-anchor="middle">5</text>
<text x="1294.5" y="1529.7" font-size="86.6" fill="#52514e" text-anchor="middle">6</text>
<text x="1448.2" y="1529.7" font-size="86.6" fill="#52514e" text-anchor="middle">7</text>
<text x="1602.0" y="1529.7" font-size="86.6" fill="#52514e" text-anchor="middle">8</text>
<text x="987.0" y="1678.2" font-size="92.8" fill="#0b0b0b" text-anchor="middle">code blocks changed</text>
<text x="111.4" y="791.1" font-size="92.8" fill="#0b0b0b" text-anchor="middle" transform="rotate(-90 111.4 791.1)">decoded goal shift (MSE)</text>
<line x1="372.0" y1="1391.1" x2="1602.0" y2="1391.1" stroke="#8a8880" stroke-width="8.66"/>
<polygon points="372.0,1391.1 525.8,1350.4 679.5,1249.6 833.2,1085.6 987.0,934.9 1140.8,813.7 1294.5,733.2 1448.2,675.1 1602.0,620.0 1602.0,856.0 1448.2,879.3 1294.5,946.3 1140.8,1034.7 987.0,1107.7 833.2,1200.1 679.5,1309.9 525.8,1371.8 372.0,1391.1" fill="#52514e" fill-opacity="0.16" stroke="none"/>
<path d="M372.0,1391.1 L525.8,1361.1 L679.5,1279.8 L833.2,1142.8 L987.0,1021.3 L1140.8,924.2 L1294.5,839.7 L1448.2,777.2 L1602.0,738.0" fill="none" stroke="#52514e" stroke-width="21.04" stroke-linejoin="round"/>
<circle cx="372.0" cy="1391.1" r="21.0" fill="#52514e" stroke="white" stroke-width="8.66"/>
<circle cx="525.8" cy="1361.1" r="21.0" fill="#52514e" stroke="white" stroke-width="8.66"/>
<circle cx="679.5" cy="1279.8" r="21.0" fill="#52514e" stroke="white" stroke-width="8.66"/>
<circle cx="833.2" cy="1142.8" r="21.0" fill="#52514e" stroke="white" stroke-width="8.66"/>
<circle cx="987.0" cy="1021.3" r="21.0" fill="#52514e" stroke="white" stroke-width="8.66"/>
<circle cx="1140.8" cy="924.2" r="21.0" fill="#52514e" stroke="white" stroke-width="8.66"/>
<circle cx="1294.5" cy="839.7" r="21.0" fill="#52514e" stroke="white" stroke-width="8.66"/>
<circle cx="1448.2" cy="777.2" r="21.0" fill="#52514e" stroke="white" stroke-width="8.66"/>
<circle cx="1602.0" cy="738.0" r="21.0" fill="#52514e" stroke="white" stroke-width="8.66"/>
<polygon points="372.0,1391.1 525.8,1237.7 679.5,1096.6 833.2,959.8 987.0,830.8 1140.8,743.6 1294.5,642.7 1448.2,547.3 1602.0,464.8 1602.0,772.0 1448.2,824.2 1294.5,891.9 1140.8,958.2 987.0,1014.2 833.2,1089.3 679.5,1168.7 525.8,1287.9 372.0,1391.1" fill="#2a78d6" fill-opacity="0.16" stroke="none"/>
<path d="M372.0,1391.1 L525.8,1262.8 L679.5,1132.6 L833.2,1024.5 L987.0,922.5 L1140.8,850.9 L1294.5,767.3 L1448.2,685.8 L1602.0,618.4" fill="none" stroke="#2a78d6" stroke-width="21.04" stroke-linejoin="round"/>
<circle cx="372.0" cy="1391.1" r="21.0" fill="#2a78d6" stroke="white" stroke-width="8.66"/>
<circle cx="525.8" cy="1262.8" r="21.0" fill="#2a78d6" stroke="white" stroke-width="8.66"/>
<circle cx="679.5" cy="1132.6" r="21.0" fill="#2a78d6" stroke="white" stroke-width="8.66"/>
<circle cx="833.2" cy="1024.5" r="21.0" fill="#2a78d6" stroke="white" stroke-width="8.66"/>
<circle cx="987.0" cy="922.5" r="21.0" fill="#2a78d6" stroke="white" stroke-width="8.66"/>
<circle cx="1140.8" cy="850.9" r="21.0" fill="#2a78d6" stroke="white" stroke-width="8.66"/>
<circle cx="1294.5" cy="767.3" r="21.0" fill="#2a78d6" stroke="white" stroke-width="8.66"/>
<circle cx="1448.2" cy="685.8" r="21.0" fill="#2a78d6" stroke="white" stroke-width="8.66"/>
<circle cx="1602.0" cy="618.4" r="21.0" fill="#2a78d6" stroke="white" stroke-width="8.66"/>
<polygon points="372.0,1391.1 525.8,1188.8 679.5,1016.0 833.2,772.6 987.0,697.9 1140.8,547.0 1294.5,466.7 1448.2,358.8 1602.0,280.0 1602.0,517.0 1448.2,594.9 1294.5,647.4 1140.8,769.2 987.0,856.0 833.2,998.7 679.5,1124.5 525.8,1268.6 372.0,1391.1" fill="#1baf7a" fill-opacity="0.16" stroke="none"/>
<path d="M372.0,1391.1 L525.8,1228.7 L679.5,1070.3 L833.2,885.6 L987.0,776.9 L1140.8,658.1 L1294.5,557.0 L1448.2,476.9 L1602.0,398.5" fill="none" stroke="#1baf7a" stroke-width="21.04" stroke-linejoin="round"/>
<circle cx="372.0" cy="1391.1" r="21.0" fill="#1baf7a" stroke="white" stroke-width="8.66"/>
<circle cx="525.8" cy="1228.7" r="21.0" fill="#1baf7a" stroke="white" stroke-width="8.66"/>
<circle cx="679.5" cy="1070.3" r="21.0" fill="#1baf7a" stroke="white" stroke-width="8.66"/>
<circle cx="833.2" cy="885.6" r="21.0" fill="#1baf7a" stroke="white" stroke-width="8.66"/>
<circle cx="987.0" cy="776.9" r="21.0" fill="#1baf7a" stroke="white" stroke-width="8.66"/>
<circle cx="1140.8" cy="658.1" r="21.0" fill="#1baf7a" stroke="white" stroke-width="8.66"/>
<circle cx="1294.5" cy="557.0" r="21.0" fill="#1baf7a" stroke="white" stroke-width="8.66"/>
<circle cx="1448.2" cy="476.9" r="21.0" fill="#1baf7a" stroke="white" stroke-width="8.66"/>
<circle cx="1602.0" cy="398.5" r="21.0" fill="#1baf7a" stroke="white" stroke-width="8.66"/>
<polygon points="372.0,1391.1 525.8,1225.0 679.5,1079.2 833.2,951.7 987.0,856.7 1140.8,755.5 1294.5,652.8 1448.2,532.5 1602.0,462.0 1602.0,645.8 1448.2,732.0 1294.5,790.1 1140.8,889.5 987.0,980.4 833.2,1063.0 679.5,1170.7 525.8,1300.7 372.0,1391.1" fill="#eda100" fill-opacity="0.16" stroke="none"/>
<path d="M372.0,1391.1 L525.8,1262.9 L679.5,1124.9 L833.2,1007.3 L987.0,918.5 L1140.8,822.5 L1294.5,721.5 L1448.2,632.2 L1602.0,553.9" fill="none" stroke="#eda100" stroke-width="21.04" stroke-linejoin="round"/>
<circle cx="372.0" cy="1391.1" r="21.0" fill="#eda100" stroke="white" stroke-width="8.66"/>
<circle cx="525.8" cy="1262.9" r="21.0" fill="#eda100" stroke="white" stroke-width="8.66"/>
<circle cx="679.5" cy="1124.9" r="21.0" fill="#eda100" stroke="white" stroke-width="8.66"/>
<circle cx="833.2" cy="1007.3" r="21.0" fill="#eda100" stroke="white" stroke-width="8.66"/>
<circle cx="987.0" cy="918.5" r="21.0" fill="#eda100" stroke="white" stroke-width="8.66"/>
<circle cx="1140.8" cy="822.5" r="21.0" fill="#eda100" stroke="white" stroke-width="8.66"/>
<circle cx="1294.5" cy="721.5" r="21.0" fill="#eda100" stroke="white" stroke-width="8.66"/>
<circle cx="1448.2" cy="632.2" r="21.0" fill="#eda100" stroke="white" stroke-width="8.66"/>
<circle cx="1602.0" cy="553.9" r="21.0" fill="#eda100" stroke="white" stroke-width="8.66"/>
<text xml:space="preserve" x="1651.5" y="427.0" font-size="79.2" fill="#1baf7a">LiP</text>
<text xml:space="preserve" x="1651.5" y="582.4" font-size="79.2" fill="#eda100">SOM-line + LiP</text>
<text xml:space="preserve" x="1651.5" y="673.5" font-size="79.2" fill="#2a78d6">SOM-line</text>
<text xml:space="preserve" x="1651.5" y="766.5" font-size="79.2" fill="#52514e">Director</text>
<text x="3225.0" y="122.5" font-size="111.4" fill="#0b0b0b" text-anchor="middle">Hopper Stand</text>
<line x1="2610.0" y1="1391.1" x2="3840.0" y2="1391.1" stroke="#e6e5e1" stroke-width="6.19"/>
<text x="2560.5" y="1422.3" font-size="86.6" fill="#52514e" text-anchor="end">0</text>
<line x1="2610.0" y1="1177.8" x2="3840.0" y2="1177.8" stroke="#e6e5e1" stroke-width="6.19"/>
<text x="2560.5" y="1209.0" font-size="86.6" fill="#52514e" text-anchor="end">0.025</text>
<line x1="2610.0" y1="964.6" x2="3840.0" y2="964.6" stroke="#e6e5e1" stroke-width="6.19"/>
<text x="2560.5" y="995.7" font-size="86.6" fill="#52514e" text-anchor="end">0.05</text>
<line x1="2610.0" y1="751.3" x2="3840.0" y2="751.3" stroke="#e6e5e1" stroke-width="6.19"/>
<text x="2560.5" y="782.5" font-size="86.6" fill="#52514e" text-anchor="end">0.075</text>
<line x1="2610.0" y1="538.0" x2="3840.0" y2="538.0" stroke="#e6e5e1" stroke-width="6.19"/>
<text x="2560.5" y="569.2" font-size="86.6" fill="#52514e" text-anchor="end">0.1</text>
<line x1="2610.0" y1="324.7" x2="3840.0" y2="324.7" stroke="#e6e5e1" stroke-width="6.19"/>
<text x="2560.5" y="355.9" font-size="86.6" fill="#52514e" text-anchor="end">0.125</text>
<text x="2610.0" y="1529.7" font-size="86.6" fill="#52514e" text-anchor="middle">0</text>
<text x="2763.8" y="1529.7" font-size="86.6" fill="#52514e" text-anchor="middle">1</text>
<text x="2917.5" y="1529.7" font-size="86.6" fill="#52514e" text-anchor="middle">2</text>
<text x="3071.2" y="1529.7" font-size="86.6" fill="#52514e" text-anchor="middle">3</text>
<text x="3225.0" y="1529.7" font-size="86.6" fill="#52514e" text-anchor="middle">4</text>
<text x="3378.8" y="1529.7" font-size="86.6" fill="#52514e" text-anchor="middle">5</text>
<text x="3532.5" y="1529.7" font-size="86.6" fill="#52514e" text-anchor="middle">6</text>
<text x="3686.2" y="1529.7" font-size="86.6" fill="#52514e" text-anchor="middle">7</text>
<text x="3840.0" y="1529.7" font-size="86.6" fill="#52514e" text-anchor="middle">8</text>
<text x="3225.0" y="1678.2" font-size="92.8" fill="#0b0b0b" text-anchor="middle">code blocks changed</text>
<line x1="2610.0" y1="1391.1" x2="3840.0" y2="1391.1" stroke="#8a8880" stroke-width="8.66"/>
<polygon points="2610.0,1391.1 2763.8,1356.2 2917.5,1276.8 3071.2,1177.9 3225.0,1074.7 3378.8,994.2 3532.5,901.9 3686.2,825.2 3840.0,783.1 3840.0,872.2 3686.2,868.5 3532.5,948.5 3378.8,1028.4 3225.0,1121.8 3071.2,1198.9 2917.5,1303.1 2763.8,1362.7 2610.0,1391.1" fill="#52514e" fill-opacity="0.16" stroke="none"/>
<path d="M2610.0,1391.1 L2763.8,1359.5 L2917.5,1289.9 L3071.2,1188.4 L3225.0,1098.2 L3378.8,1011.3 L3532.5,925.2 L3686.2,846.9 L3840.0,827.7" fill="none" stroke="#52514e" stroke-width="21.04" stroke-linejoin="round"/>
<circle cx="2610.0" cy="1391.1" r="21.0" fill="#52514e" stroke="white" stroke-width="8.66"/>
<circle cx="2763.8" cy="1359.5" r="21.0" fill="#52514e" stroke="white" stroke-width="8.66"/>
<circle cx="2917.5" cy="1289.9" r="21.0" fill="#52514e" stroke="white" stroke-width="8.66"/>
<circle cx="3071.2" cy="1188.4" r="21.0" fill="#52514e" stroke="white" stroke-width="8.66"/>
<circle cx="3225.0" cy="1098.2" r="21.0" fill="#52514e" stroke="white" stroke-width="8.66"/>
<circle cx="3378.8" cy="1011.3" r="21.0" fill="#52514e" stroke="white" stroke-width="8.66"/>
<circle cx="3532.5" cy="925.2" r="21.0" fill="#52514e" stroke="white" stroke-width="8.66"/>
<circle cx="3686.2" cy="846.9" r="21.0" fill="#52514e" stroke="white" stroke-width="8.66"/>
<circle cx="3840.0" cy="827.7" r="21.0" fill="#52514e" stroke="white" stroke-width="8.66"/>
<polygon points="2610.0,1391.1 2763.8,1170.3 2917.5,969.3 3071.2,775.4 3225.0,660.2 3378.8,558.3 3532.5,445.1 3686.2,360.0 3840.0,284.1 3840.0,397.4 3686.2,497.9 3532.5,578.7 3378.8,685.7 3225.0,834.2 3071.2,956.4 2917.5,1082.4 2763.8,1236.5 2610.0,1391.1" fill="#2a78d6" fill-opacity="0.16" stroke="none"/>
<path d="M2610.0,1391.1 L2763.8,1203.4 L2917.5,1025.8 L3071.2,865.9 L3225.0,747.2 L3378.8,622.0 L3532.5,511.9 L3686.2,428.9 L3840.0,340.7" fill="none" stroke="#2a78d6" stroke-width="21.04" stroke-linejoin="round"/>
<circle cx="2610.0" cy="1391.1" r="21.0" fill="#2a78d6" stroke="white" stroke-width="8.66"/>
<circle cx="2763.8" cy="1203.4" r="21.0" fill="#2a78d6" stroke="white" stroke-width="8.66"/>
<circle cx="2917.5" cy="1025.8" r="21.0" fill="#2a78d6" stroke="white" stroke-width="8.66"/>
<circle cx="3071.2" cy="865.9" r="21.0" fill="#2a78d6" stroke="white" stroke-width="8.66"/>
<circle cx="3225.0" cy="747.2" r="21.0" fill="#2a78d6" stroke="white" stroke-width="8.66"/>
<circle cx="3378.8" cy="622.0" r="21.0" fill="#2a78d6" stroke="white" stroke-width="8.66"/>
<circle cx="3532.5" cy="511.9" r="21.0" fill="#2a78d6" stroke="white" stroke-width="8.66"/>
<circle cx="3686.2" cy="428.9" r="21.0" fill="#2a78d6" stroke="white" stroke-width="8.66"/>
<circle cx="3840.0" cy="340.7" r="21.0" fill="#2a78d6" stroke="white" stroke-width="8.66"/>
<polygon points="2610.0,1391.1 2763.8,1249.5 2917.5,1097.1 3071.2,949.3 3225.0,818.4 3378.8,668.0 3532.5,604.3 3686.2,436.4 3840.0,354.2 3840.0,447.8 3686.2,591.8 3532.5,706.1 3378.8,857.3 3225.0,958.3 3071.2,1062.0 2917.5,1182.2 2763.8,1281.7 2610.0,1391.1" fill="#1baf7a" fill-opacity="0.16" stroke="none"/>
<path d="M2610.0,1391.1 L2763.8,1265.6 L2917.5,1139.7 L3071.2,1005.7 L3225.0,888.3 L3378.8,762.7 L3532.5,655.2 L3686.2,514.1 L3840.0,401.0" fill="none" stroke="#1baf7a" stroke-width="21.04" stroke-linejoin="round"/>
<circle cx="2610.0" cy="1391.1" r="21.0" fill="#1baf7a" stroke="white" stroke-width="8.66"/>
<circle cx="2763.8" cy="1265.6" r="21.0" fill="#1baf7a" stroke="white" stroke-width="8.66"/>
<circle cx="2917.5" cy="1139.7" r="21.0" fill="#1baf7a" stroke="white" stroke-width="8.66"/>
<circle cx="3071.2" cy="1005.7" r="21.0" fill="#1baf7a" stroke="white" stroke-width="8.66"/>
<circle cx="3225.0" cy="888.3" r="21.0" fill="#1baf7a" stroke="white" stroke-width="8.66"/>
<circle cx="3378.8" cy="762.7" r="21.0" fill="#1baf7a" stroke="white" stroke-width="8.66"/>
<circle cx="3532.5" cy="655.2" r="21.0" fill="#1baf7a" stroke="white" stroke-width="8.66"/>
<circle cx="3686.2" cy="514.1" r="21.0" fill="#1baf7a" stroke="white" stroke-width="8.66"/>
<circle cx="3840.0" cy="401.0" r="21.0" fill="#1baf7a" stroke="white" stroke-width="8.66"/>
<polygon points="2610.0,1391.1 2763.8,1213.3 2917.5,1016.3 3071.2,906.4 3225.0,742.8 3378.8,622.0 3532.5,465.0 3686.2,390.9 3840.0,280.0 3840.0,673.9 3686.2,783.4 3532.5,839.5 3378.8,926.6 3225.0,985.7 3071.2,1105.2 2917.5,1219.7 2763.8,1304.6 2610.0,1391.1" fill="#eda100" fill-opacity="0.16" stroke="none"/>
<path d="M2610.0,1391.1 L2763.8,1259.0 L2917.5,1118.0 L3071.2,1005.8 L3225.0,864.3 L3378.8,774.3 L3532.5,652.2 L3686.2,587.1 L3840.0,476.9" fill="none" stroke="#eda100" stroke-width="21.04" stroke-linejoin="round"/>
<circle cx="2610.0" cy="1391.1" r="21.0" fill="#eda100" stroke="white" stroke-width="8.66"/>
<circle cx="2763.8" cy="1259.0" r="21.0" fill="#eda100" stroke="white" stroke-width="8.66"/>
<circle cx="2917.5" cy="1118.0" r="21.0" fill="#eda100" stroke="white" stroke-width="8.66"/>
<circle cx="3071.2" cy="1005.8" r="21.0" fill="#eda100" stroke="white" stroke-width="8.66"/>
<circle cx="3225.0" cy="864.3" r="21.0" fill="#eda100" stroke="white" stroke-width="8.66"/>
<circle cx="3378.8" cy="774.3" r="21.0" fill="#eda100" stroke="white" stroke-width="8.66"/>
<circle cx="3532.5" cy="652.2" r="21.0" fill="#eda100" stroke="white" stroke-width="8.66"/>
<circle cx="3686.2" cy="587.1" r="21.0" fill="#eda100" stroke="white" stroke-width="8.66"/>
<circle cx="3840.0" cy="476.9" r="21.0" fill="#eda100" stroke="white" stroke-width="8.66"/>
<text xml:space="preserve" x="3889.5" y="369.3" font-size="79.2" fill="#2a78d6">SOM-line</text>
<text xml:space="preserve" x="3889.5" y="460.4" font-size="79.2" fill="#1baf7a">LiP</text>
<text xml:space="preserve" x="3889.5" y="551.5" font-size="79.2" fill="#eda100">SOM-line + LiP</text>
<text xml:space="preserve" x="3889.5" y="856.2" font-size="79.2" fill="#52514e">Director</text>
</svg>