<svg xmlns="http://www.w3.org/2000/svg" width="4668" height="1714" viewBox="0 0 4668 1714" font-family="Helvetica,Arial,sans-serif">
<rect x="0" y="0" width="4668" height="1714" fill="white"/>
<text x="987.0" y="122.5" font-size="111.4" fill="#0b0b0b" text-anchor="middle">Cartpole Swingup</text>
<line x1="372.0" y1="1391.1" x2="1602.0" y2="1391.1" stroke="#e6e5e1" stroke-width="6.19"/>
<text x="322.5" y="1422.3" font-size="86.6" fill="#52514e" text-anchor="end">0</text>
<line x1="372.0" y1="1149.8" x2="1602.0" y2="1149.8" stroke="#e6e5e1" stroke-width="6.19"/>
<text x="322.5" y="1181.0" font-size="86.6" fill="#52514e" text-anchor="end">0.1</text>
<line x1="372.0" y1="908.6" x2="1602.0" y2="908.6" stroke="#e6e5e1" stroke-width="6.19"/>
<text x="322.5" y="939.8" font-size="86.6" fill="#52514e" text-anchor="end">0.2</text>
<line x1="372.0" y1="667.3" x2="1602.0" y2="667.3" stroke="#e6e5e1" stroke-width="6.19"/>
<text x="322.5" y="698.5" font-size="86.6" fill="#52514e" text-anchor="end">0.3</text>
<line x1="372.0" y1="426.0" x2="1602.0" y2="426.0" stroke="#e6e5e1" stroke-width="6.19"/>
<text x="322.5" y="457.2" font-size="86.6" fill="#52514e" text-anchor="end">0.4</text>
<text x="372.0" y="1529.7" font-size="86.6" fill="#52514e" text-anchor="middle">0</text>
<text x="618.0" y="1529.7" font-size="86.6" fill="#52514e" text-anchor="middle">0.05</text>
<text x="864.0" y="1529.7" font-size="86.6" fill="#52514e" text-anchor="middle">0.1</text>
<text x="1110.0" y="1529.7" font-size="86.6" fill="#52514e" text-anchor="middle">0.15</text>
<text x="1356.0" y="1529.7" font-size="86.6" fill="#52514e" text-anchor="middle">0.2</text>
<text x="1602.0" y="1529.7" font-size="86.6" fill="#52514e" text-anchor="middle">0.25</text>
<text x="987.0" y="1678.2" font-size="92.8" fill="#0b0b0b" text-anchor="middle">goal-code MSE</text>
<text x="111.4" y="791.1" font-size="92.8" fill="#0b0b0b" text-anchor="middle" transform="rotate(-90 111.4 791.1)">decoded goal shift (MSE)</text>
<line x1="372.0" y1="1391.1" x2="1602.0" y2="1391.1" stroke="#8a8880" stroke-width="8.66"/>
<polygon points="372.0,1391.1 525.8,1358.5 679.5,1198.9 833.2,875.1 987.0,767.8 1140.8,708.8 1294.5,697.3 1448.2,672.7 1602.0,669.8 1602.0,1202.3 1448.2,1224.8 1294.5,1267.1 1140.8,1303.5 987.0,1341.7 833.2,1365.3 679.5,1380.0 525.8,1386.9 372.0,1391.1" fill="#52514e" fill-opacity="0.16" stroke="none"/>
<path d="M372.0,1391.1 L525.8,1373.5 L679.5,1312.4 L833.2,1222.9 L987.0,1148.6 L1140.8,1076.7 L1294.5,1031.7 L1448.2,989.0 L1602.0,979.7" fill="none" stroke="#52514e" stroke-width="21.04" stroke-linejoin="round"/>
<circle cx="372.0" cy="1391.1" r="21.0" fill="#52514e" stroke="white" stroke-width="8.66"/>
<circle cx="525.8" cy="1373.5" r="21.0" fill="#52514e" stroke="white" stroke-width="8.66"/>
<circle cx="679.5" cy="1312.4" r="21.0" fill="#52514e" stroke="white" stroke-width="8.66"/>
<circle cx="833.2" cy="1222.9" r="21.0" fill="#52514e" stroke="white" stroke-width="8.66"/>
<circle cx="987.0" cy="1148.6" r="21.0" fill="#52514e" stroke="white" stroke-width="8.66"/>
<circle cx="1140.8" cy="1076.7" r="21.0" fill="#52514e" stroke="white" stroke-width="8.66"/>
<circle cx="1294.5" cy="1031.7" r="21.0" fill="#52514e" stroke="white" stroke-width="8.66"/>
<circle cx="1448.2" cy="989.0" r="21.0" fill="#52514e" stroke="white" stroke-width="8.66"/>
<circle cx="1602.0" cy="979.7" r="21.0" fill="#52514e" stroke="white" stroke-width="8.66"/>
<circle cx="1602.0" cy="979.7" r="21.0" fill="#52514e" stroke="white" stroke-width="8.66"/>
<polygon points="372.0,1391.1 525.8,1380.0 679.5,1358.8 833.2,1317.5 987.0,1230.9 1140.8,936.3 1294.5,753.4 1448.2,694.3 1602.0,521.8 1602.0,1151.3 1448.2,1325.4 1294.5,1357.7 1140.8,1371.9 987.0,1380.4 833.2,1385.0 679.5,1388.0 525.8,1390.1 372.0,1391.1" fill="#2a78d6" fill-opacity="0.16" stroke="none"/>
<path d="M372.0,1391.1 L525.8,1384.3 L679.5,1367.8 L833.2,1341.8 L987.0,1308.3 L1140.8,1254.4 L1294.5,1186.8 L1448.2,1082.3 L1602.0,808.9" fill="none" stroke="#2a78d6" stroke-width="21.04" stroke-linejoin="round"/>
<circle cx="372.0" cy="1391.1" r="21.0" fill="#2a78d6" stroke="white" stroke-width="8.66"/>
<circle cx="525.8" cy="1384.3" r="21.0" fill="#2a78d6" stroke="white" stroke-width="8.66"/>
<circle cx="679.5" cy="1367.8" r="21.0" fill="#2a78d6" stroke="white" stroke-width="8.66"/>
<circle cx="833.2" cy="1341.8" r="21.0" fill="#2a78d6" stroke="white" stroke-width="8.66"/>
<circle cx="987.0" cy="1308.3" r="21.0" fill="#2a78d6" stroke="white" stroke-width="8.66"/>
<circle cx="1140.8" cy="1254.4" r="21.0" fill="#2a78d6" stroke="white" stroke-width="8.66"/>
<circle cx="1294.5" cy="1186.8" r="21.0" fill="#2a78d6" stroke="white" stroke-width="8.66"/>
<circle cx="1448.2" cy="1082.3" r="21.0" fill="#2a78d6" stroke="white" stroke-width="8.66"/>
<circle cx="1602.0" cy="808.9" r="21.0" fill="#2a78d6" stroke="white" stroke-width="8.66"/>
<circle cx="1602.0" cy="808.9" r="21.0" fill="#2a78d6" stroke="white" stroke-width="8.66"/>
<polygon points="372.0,1391.1 525.8,1063.9 679.5,918.5 833.2,786.2 987.0,706.7 1140.8,652.7 1294.5,602.8 1448.2,562.4 1602.0,559.3 1602.0,952.4 1448.2,1005.6 1294.5,1057.5 1140.8,1115.7 987.0,1188.0 833.2,1257.6 679.5,1325.6 525.8,1367.8 372.0,1391.1" fill="#eb6834" fill-opacity="0.16" stroke="none"/>
<path d="M372.0,1391.1 L525.8,1261.0 L679.5,1146.4 L833.2,1038.0 L987.0,951.9 L1140.8,890.7 L1294.5,836.6 L1448.2,794.9 L1602.0,763.7" fill="none" stroke="#eb6834" stroke-width="21.04" stroke-linejoin="round"/>
<circle cx="372.0" cy="1391.1" r="21.0" fill="#eb6834" stroke="white" stroke-width="8.66"/>
<circle cx="525.8" cy="1261.0" r="21.0" fill="#eb6834" stroke="white" stroke-width="8.66"/>
<circle cx="679.5" cy="1146.4" r="21.0" fill="#eb6834" stroke="white" stroke-width="8.66"/>
<circle cx="833.2" cy="1038.0" r="21.0" fill="#eb6834" stroke="white" stroke-width="8.66"/>
<circle cx="987.0" cy="951.9" r="21.0" fill="#eb6834" stroke="white" stroke-width="8.66"/>
<circle cx="1140.8" cy="890.7" r="21.0" fill="#eb6834" stroke="white" stroke-width="8.66"/>
<circle cx="1294.5" cy="836.6" r="21.0" fill="#eb6834" stroke="white" stroke-width="8.66"/>
<circle cx="1448.2" cy="794.9" r="21.0" fill="#eb6834" stroke="white" stroke-width="8.66"/>
<circle cx="1602.0" cy="763.7" r="21.0" fill="#eb6834" stroke="white" stroke-width="8.66"/>
<circle cx="1602.0" cy="763.7" r="21.0" fill="#eb6834" stroke="white" stroke-width="8.66"/>
<polygon points="372.0,1391.1 525.8,1147.5 679.5,851.0 833.2,691.1 987.0,644.6 1140.8,598.4 1294.5,547.0 1448.2,524.0 1602.0,484.0 1602.0,1056.3 1448.2,1122.3 1294.5,1197.4 1140.8,1259.0 987.0,1307.9 833.2,1347.2 679.5,1371.1 525.8,1387.2 372.0,1391.1" fill="#1baf7a" fill-opacity="0.16" stroke="none"/>
<path d="M372.0,1391.1 L525.8,1297.2 L679.5,1201.4 L833.2,1108.0 L987.0,1030.0 L1140.8,947.4 L1294.5,879.0 L1448.2,824.1 L1602.0,767.0" fill="none" stroke="#1baf7a" stroke-width="21.04" stroke-linejoin="round"/>
<circle cx="372.0" cy="1391.1" r="21.0" fill="#1baf7a" stroke="white" stroke-width="8.66"/>
<circle cx="525.8" cy="1297.2" r="21.0" fill="#1baf7a" stroke="white" stroke-width="8.66"/>
<circle cx="679.5" cy="1201.4" r="21.0" fill="#1baf7a" stroke="white" stroke-width="8.66"/>
<circle cx="833.2" cy="1108.0" r="21.0" fill="#1baf7a" stroke="white" stroke-width="8.66"/>
<circle cx="987.0" cy="1030.0" r="21.0" fill="#1baf7a" stroke="white" stroke-width="8.66"/>
<circle cx="1140.8" cy="947.4" r="21.0" fill="#1baf7a" stroke="white" stroke-width="8.66"/>
<circle cx="1294.5" cy="879.0" r="21.0" fill="#1baf7a" stroke="white" stroke-width="8.66"/>
<circle cx="1448.2" cy="824.1" r="21.0" fill="#1baf7a" stroke="white" stroke-width="8.66"/>
<circle cx="1602.0" cy="767.0" r="21.0" fill="#1baf7a" stroke="white" stroke-width="8.66"/>
<circle cx="1602.0" cy="767.0" r="21.0" fill="#1baf7a" stroke="white" stroke-width="8.66"/>
<polygon points="372.0,1391.1 525.8,1378.4 679.5,1348.9 833.2,1292.7 987.0,1208.6 1140.8,943.7 1294.5,765.2 1448.2,598.9 1602.0,406.1 1602.0,1158.2 1448.2,1333.4 1294.5,1364.3 1140.8,1375.5 987.0,1382.3 833.2,1386.3 679.5,1388.6 525.8,1390.4 372.0,1391.1" fill="#eda100" fill-opacity="0.16" stroke="none"/>
<path d="M372.0,1391.1 L525.8,1383.1 L679.5,1362.9 L833.2,1339.2 L987.0,1306.8 L1140.8,1246.9 L1294.5,1180.2 L1448.2,1055.0 L1602.0,758.6" fill="none" stroke="#eda100" stroke-width="21.04" stroke-linejoin="round"/>
<circle cx="372.0" cy="1391.1" r="21.0" fill="#eda100" stroke="white" stroke-width="8.66"/>
<circle cx="525.8" cy="1383.1" r="21.0" fill="#eda100" stroke="white" stroke-width="8.66"/>
<circle cx="679.5" cy="1362.9" r="21.0" fill="#eda100" stroke="white" stroke-width="8.66"/>
<circle cx="833.2" cy="1339.2" r="21.0" fill="#eda100" stroke="white" stroke-width="8.66"/>
<circle cx="987.0" cy="1306.8" r="21.0" fill="#eda100" stroke="white" stroke-width="8.66"/>
<circle cx="1140.8" cy="1246.9" r="21.0" fill="#eda100" stroke="white" stroke-width="8.66"/>
<circle cx="1294.5" cy="1180.2" r="21.0" fill="#eda100" stroke="white" stroke-width="8.66"/>
<circle cx="1448.2" cy="1055.0" r="21.0" fill="#eda100" stroke="white" stroke-width="8.66"/>
<circle cx="1602.0" cy="758.6" r="21.0" fill="#eda100" stroke="white" stroke-width="8.66"/>
<circle cx="1602.0" cy="758.6" r="21.0" fill="#eda100" stroke="white" stroke-width="8.66"/>
<polygon points="372.0,1391.1 525.8,1009.7 679.5,715.5 833.2,562.9 987.0,472.9 1140.8,393.7 1294.5,332.7 1448.2,280.0 1602.0,308.0 1602.0,744.8 1448.2,831.9 1294.5,954.2 1140.8,1078.7 987.0,1187.9 833.2,1267.9 679.5,1332.1 525.8,1369.4 372.0,1391.1" fill="#e87ba4" fill-opacity="0.16" stroke="none"/>
<path d="M372.0,1391.1 L525.8,1247.9 L679.5,1094.7 L833.2,953.2 L987.0,837.4 L1140.8,724.6 L1294.5,628.5 L1448.2,558.8 L1602.0,528.1" fill="none" stroke="#e87ba4" stroke-width="21.04" stroke-linejoin="round"/>
<circle cx="372.0" cy="1391.1" r="21.0" fill="#e87ba4" stroke="white" stroke-width="8.66"/>
<circle cx="525.8" cy="1247.9" r="21.0" fill="#e87ba4" stroke="white" stroke-width="8.66"/>
<circle cx="679.5" cy="1094.7" r="21.0" fill="#e87ba4" stroke="white" stroke-width="8.66"/>
<circle cx="833.2" cy="953.2" r="21.0" fill="#e87ba4" stroke="white" stroke-width="8.66"/>
<circle cx="987.0" cy="837.4" r="21.0" fill="#e87ba4" stroke="white" stroke-width="8.66"/>
<circle cx="1140.8" cy="724.6" r="21.0" fill="#e87ba4" stroke="white" stroke-width="8.66"/>
<circle cx="1294.5" cy="628.5" r="21.0" fill="#e87ba4" stroke="white" stroke-width="8.66"/>
<circle cx="1448.2" cy="558.8" r="21.0" fill="#e87ba4" stroke="white" stroke-width="8.66"/>
<circle cx="1602.0" cy="528.1" r="21.0" fill="#e87ba4" stroke="white" stroke-width="8.66"/>
<circle cx="1602.0" cy="528.1" r="21.0" fill="#e87ba4" stroke="white" stroke-width="8.66"/>
<text xml:space="preserve" x="1651.5" y="556.6" font-size="79.2" fill="#e87ba4">SOM-line-OG + LiP</text>
<text xml:space="preserve" x="1651.5" y="787.2" font-size="79.2" fill="#eda100">SOM-line + LiP</text>
<text xml:space="preserve" x="1651.5" y="878.3" font-size="79.2" fill="#eb6834">SOM-line-OG</text>
<text xml:space="preserve" x="1651.5" y="969.3" font-size="79.2" fill="#1baf7a">LiP</text>
<text xml:space="preserve" x="1651.5" y="1060.4" font-size="79.2" fill="#2a78d6">SOM-line</text>
<text xml:space="preserve" x="1651.5" y="1151.5" font-size="79.2" fill="#52514e">Director</text>
<text x="3225.0" y="122.5" font-size="111.4" fill="#0b0b0b" text-anchor="middle">Hopper Stand</text>
<line x1="2610.0" y1="1391.1" x2="3840.0" y2="1391.1" stroke="#e6e5e1" stroke-width="6.19"/>
<text x="2560.5" y="1422.3" font-size="86.6" fill="#52514e" text-anchor="end">0</text>
<line x1="2610.0" y1="1084.4" x2="3840.0" y2="1084.4" stroke="#e6e5e1" stroke-width="6.19"/>
<text x="2560.5" y="1115.6" font-size="86.6" fill="#52514e" text-anchor="end">0.1</text>
<line x1="2610.0" y1="777.6" x2="3840.0" y2="777.6" stroke="#e6e5e1" stroke-width="6.19"/>
<text x="2560.5" y="808.8" font-size="86.6" fill="#52514e" text-anchor="end">0.2</text>
<line x1="2610.0" y1="470.9" x2="3840.0" y2="470.9" stroke="#e6e5e1" stroke-width="6.19"/>
<text x="2560.5" y="502.1" font-size="86.6" fill="#52514e" text-anchor="end">0.3</text>
<text x="2610.0" y="1529.7" font-size="86.6" fill="#52514e" text-anchor="middle">0</text>
<text x="2856.0" y="1529.7" font-size="86.6" fill="#52514e" text-anchor="middle">0.05</text>
<text x="3102.0" y="1529.7" font-size="86.6" fill="#52514e" text-anchor="middle">0.1</text>
<text x="3348.0" y="1529.7" font-size="86.6" fill="#52514e" text-anchor="middle">0.15</text>
<text x="3594.0" y="1529.7" font-size="86.6" fill="#52514e" text-anchor="middle">0.2</text>
<text x="3840.0" y="1529.7" font-size="86.6" fill="#52514e" text-anchor="middle">0.25</text>
<text x="3225.0" y="1678.2" font-size="92.8" fill="#0b0b0b" text-anchor="middle">goal-code MSE</text>
<line x1="2610.0" y1="1391.1" x2="3840.0" y2="1391.1" stroke="#8a8880" stroke-width="8.66"/>
<polygon points="2610.0,1391.1 2763.8,1371.8 2917.5,1308.1 3071.2,1100.1 3225.0,868.4 3378.8,726.1 3532.5,719.3 3686.2,650.4 3840.0,612.3 3840.0,1324.6 3686.2,1342.5 3532.5,1354.7 3378.8,1365.8 3225.0,1373.2 3071.2,1379.9 2917.5,1384.8 2763.8,1388.5 2610.0,1391.1" fill="#52514e" fill-opacity="0.16" stroke="none"/>
<path d="M2610.0,1391.1 L2763.8,1378.7 L2917.5,1338.0 L3071.2,1285.9 L3225.0,1244.1 L3378.8,1208.8 L3532.5,1192.9 L3686.2,1168.7 L3840.0,1143.8" fill="none" stroke="#52514e" stroke-width="21.04" stroke-linejoin="round"/>
<circle cx="2610.0" cy="1391.1" r="21.0" fill="#52514e" stroke="white" stroke-width="8.66"/>
<circle cx="2763.8" cy="1378.7" r="21.0" fill="#52514e" stroke="white" stroke-width="8.66"/>
<circle cx="2917.5" cy="1338.0" r="21.0" fill="#52514e" stroke="white" stroke-width="8.66"/>
<circle cx="3071.2" cy="1285.9" r="21.0" fill="#52514e" stroke="white" stroke-width="8.66"/>
<circle cx="3225.0" cy="1244.1" r="21.0" fill="#52514e" stroke="white" stroke-width="8.66"/>
<circle cx="3378.8" cy="1208.8" r="21.0" fill="#52514e" stroke="white" stroke-width="8.66"/>
<circle cx="3532.5" cy="1192.9" r="21.0" fill="#52514e" stroke="white" stroke-width="8.66"/>
<circle cx="3686.2" cy="1168.7" r="21.0" fill="#52514e" stroke="white" stroke-width="8.66"/>
<circle cx="3840.0" cy="1143.8" r="21.0" fill="#52514e" stroke="white" stroke-width="8.66"/>
<circle cx="3840.0" cy="1143.8" r="21.0" fill="#52514e" stroke="white" stroke-width="8.66"/>
<polygon points="2610.0,1391.1 2763.8,1360.1 2917.5,1306.6 3071.2,1262.1 3225.0,1192.5 3378.8,1113.9 3532.5,975.6 3686.2,810.0 3840.0,649.2 3840.0,1176.4 3686.2,1287.1 3532.5,1330.3 3378.8,1352.5 3225.0,1367.2 3071.2,1377.2 2917.5,1383.7 2763.8,1388.4 2610.0,1391.1" fill="#2a78d6" fill-opacity="0.16" stroke="none"/>
<path d="M2610.0,1391.1 L2763.8,1373.1 L2917.5,1349.5 L3071.2,1322.7 L3225.0,1281.8 L3378.8,1242.3 L3532.5,1189.1 L3686.2,1114.4 L3840.0,919.4" fill="none" stroke="#2a78d6" stroke-width="21.04" stroke-linejoin="round"/>
<circle cx="2610.0" cy="1391.1" r="21.0" fill="#2a78d6" stroke="white" stroke-width="8.66"/>
<circle cx="2763.8" cy="1373.1" r="21.0" fill="#2a78d6" stroke="white" stroke-width="8.66"/>
<circle cx="2917.5" cy="1349.5" r="21.0" fill="#2a78d6" stroke="white" stroke-width="8.66"/>
<circle cx="3071.2" cy="1322.7" r="21.0" fill="#2a78d6" stroke="white" stroke-width="8.66"/>
<circle cx="3225.0" cy="1281.8" r="21.0" fill="#2a78d6" stroke="white" stroke-width="8.66"/>
<circle cx="3378.8" cy="1242.3" r="21.0" fill="#2a78d6" stroke="white" stroke-width="8.66"/>
<circle cx="3532.5" cy="1189.1" r="21.0" fill="#2a78d6" stroke="white" stroke-width="8.66"/>
<circle cx="3686.2" cy="1114.4" r="21.0" fill="#2a78d6" stroke="white" stroke-width="8.66"/>
<circle cx="3840.0" cy="919.4" r="21.0" fill="#2a78d6" stroke="white" stroke-width="8.66"/>
<circle cx="3840.0" cy="919.4" r="21.0" fill="#2a78d6" stroke="white" stroke-width="8.66"/>
<polygon points="2610.0,1391.1 2763.8,1205.4 2917.5,1021.5 3071.2,874.0 3225.0,743.2 3378.8,648.4 3532.5,569.7 3686.2,511.8 3840.0,411.5 3840.0,1033.1 3686.2,1149.1 3532.5,1221.3 3378.8,1267.7 3225.0,1302.1 3071.2,1335.2 2917.5,1358.7 2763.8,1378.1 2610.0,1391.1" fill="#eb6834" fill-opacity="0.16" stroke="none"/>
<path d="M2610.0,1391.1 L2763.8,1317.8 L2917.5,1236.8 L3071.2,1158.4 L3225.0,1078.0 L3378.8,993.1 L3532.5,908.8 L3686.2,832.8 L3840.0,706.8" fill="none" stroke="#eb6834" stroke-width="21.04" stroke-linejoin="round"/>
<circle cx="2610.0" cy="1391.1" r="21.0" fill="#eb6834" stroke="white" stroke-width="8.66"/>
<circle cx="2763.8" cy="1317.8" r="21.0" fill="#eb6834" stroke="white" stroke-width="8.66"/>
<circle cx="2917.5" cy="1236.8" r="21.0" fill="#eb6834" stroke="white" stroke-width="8.66"/>
<circle cx="3071.2" cy="1158.4" r="21.0" fill="#eb6834" stroke="white" stroke-width="8.66"/>
<circle cx="3225.0" cy="1078.0" r="21.0" fill="#eb6834" stroke="white" stroke-width="8.66"/>
<circle cx="3378.8" cy="993.1" r="21.0" fill="#eb6834" stroke="white" stroke-width="8.66"/>
<circle cx="3532.5" cy="908.8" r="21.0" fill="#eb6834" stroke="white" stroke-width="8.66"/>
<circle cx="3686.2" cy="832.8" r="21.0" fill="#eb6834" stroke="white" stroke-width="8.66"/>
<circle cx="3840.0" cy="706.8" r="21.0" fill="#eb6834" stroke="white" stroke-width="8.66"/>
<circle cx="3840.0" cy="706.8" r="21.0" fill="#eb6834" stroke="white" stroke-width="8.66"/>
<polygon points="2610.0,1391.1 2763.8,1271.3 2917.5,1118.6 3071.2,938.3 3225.0,816.3 3378.8,743.8 3532.5,691.5 3686.2,631.2 3840.0,558.8 3840.0,1285.4 3686.2,1295.3 3532.5,1316.5 3378.8,1335.0 3225.0,1352.7 3071.2,1368.2 2917.5,1380.1 2763.8,1388.3 2610.0,1391.1" fill="#1baf7a" fill-opacity="0.16" stroke="none"/>
<path d="M2610.0,1391.1 L2763.8,1333.6 L2917.5,1282.8 L3071.2,1234.4 L3225.0,1179.7 L3378.8,1145.9 L3532.5,1113.5 L3686.2,1070.4 L3840.0,1012.1" fill="none" stroke="#1baf7a" stroke-width="21.04" stroke-linejoin="round"/>
<circle cx="2610.0" cy="1391.1" r="21.0" fill="#1baf7a" stroke="white" stroke-width="8.66"/>
<circle cx="2763.8" cy="1333.6" r="21.0" fill="#1baf7a" stroke="white" stroke-width="8.66"/>
<circle cx="2917.5" cy="1282.8" r="21.0" fill="#1baf7a" stroke="white" stroke-width="8.66"/>
<circle cx="3071.2" cy="1234.4" r="21.0" fill="#1baf7a" stroke="white" stroke-width="8.66"/>
<circle cx="3225.0" cy="1179.7" r="21.0" fill="#1baf7a" stroke="white" stroke-width="8.66"/>
<circle cx="3378.8" cy="1145.9" r="21.0" fill="#1baf7a" stroke="white" stroke-width="8.66"/>
<circle cx="3532.5" cy="1113.5" r="21.0" fill="#1baf7a" stroke="white" stroke-width="8.66"/>
<circle cx="3686.2" cy="1070.4" r="21.0" fill="#1baf7a" stroke="white" stroke-width="8.66"/>
<circle cx="3840.0" cy="1012.1" r="21.0" fill="#1baf7a" stroke="white" stroke-width="8.66"/>
<circle cx="3840.0" cy="1012.1" r="21.0" fill="#1baf7a" stroke="white" stroke-width="8.66"/>
<polygon points="2610.0,1391.1 2763.8,1374.1 2917.5,1345.4 3071.2,1313.4 3225.0,1239.9 3378.8,1127.5 3532.5,930.3 3686.2,715.2 3840.0,505.1 3840.0,1247.0 3686.2,1326.3 3532.5,1351.3 3378.8,1365.4 3225.0,1375.0 3071.2,1381.4 2917.5,1385.5 2763.8,1389.1 2610.0,1391.1" fill="#eda100" fill-opacity="0.16" stroke="none"/>
<path d="M2610.0,1391.1 L2763.8,1375.8 L2917.5,1356.7 L3071.2,1337.9 L3225.0,1305.1 L3378.8,1271.0 L3532.5,1225.9 L3686.2,1153.8 L3840.0,913.3" fill="none" stroke="#eda100" stroke-width="21.04" stroke-linejoin="round"/>
<circle cx="2610.0" cy="1391.1" r="21.0" fill="#eda100" stroke="white" stroke-width="8.66"/>
<circle cx="2763.8" cy="1375.8" r="21.0" fill="#eda100" stroke="white" stroke-width="8.66"/>
<circle cx="2917.5" cy="1356.7" r="21.0" fill="#eda100" stroke="white" stroke-width="8.66"/>
<circle cx="3071.2" cy="1337.9" r="21.0" fill="#eda100" stroke="white" stroke-width="8.66"/>
<circle cx="3225.0" cy="1305.1" r="21.0" fill="#eda100" stroke="white" stroke-width="8.66"/>
<circle cx="3378.8" cy="1271.0" r="21.0" fill="#eda100" stroke="white" stroke-width="8.66"/>
<circle cx="3532.5" cy="1225.9" r="21.0" fill="#eda100" stroke="white" stroke-width="8.66"/>
<circle cx="3686.2" cy="1153.8" r="21.0" fill="#eda100" stroke="white" stroke-width="8.66"/>
<circle cx="3840.0" cy="913.3" r="21.0" fill="#eda100" stroke="white" stroke-width="8.66"/>
<circle cx="3840.0" cy="913.3" r="21.0" fill="#eda100" stroke="white" stroke-width="8.66"/>
<polygon points="2610.0,1391.1 2763.8,1282.8 2917.5,1125.4 3071.2,912.6 3225.0,701.1 3378.8,556.3 3532.5,441.1 3686.2,360.1 3840.0,280.0 3840.0,805.2 3686.2,1102.5 3532.5,1226.9 3378.8,1286.9 3225.0,1324.8 3071.2,1349.8 2917.5,1368.4 2763.8,1381.5 2610.0,1391.1" fill="#e87ba4" fill-opacity="0.16" stroke="none"/>
<path d="M2610.0,1391.1 L2763.8,1343.7 L2917.5,1277.4 L3071.2,1204.3 L3225.0,1100.6 L3378.8,979.6 L3532.5,848.2 L3686.2,690.6 L3840.0,516.5" fill="none" stroke="#e87ba4" stroke-width="21.04" stroke-linejoin="round"/>
<circle cx="2610.0" cy="1391.1" r="21.0" fill="#e87ba4" stroke="white" stroke-width="8.66"/>
<circle cx="2763.8" cy="1343.7" r="21.0" fill="#e87ba4" stroke="white" stroke-width="8.66"/>
<circle cx="2917.5" cy="1277.4" r="21.0" fill="#e87ba4" stroke="white" stroke-width="8.66"/>
<circle cx="3071.2" cy="1204.3" r="21.0" fill="#e87ba4" stroke="white" stroke-width="8.66"/>
<circle cx="3225.0" cy="1100.6" r="21.0" fill="#e87ba4" stroke="white" stroke-width="8.66"/>
<circle cx="3378.8" cy="979.6" r="21.0" fill="#e87ba4" stroke="white" stroke-width="8.66"/>
<circle cx="3532.5" cy="848.2" r="21.0" fill="#e87ba4" stroke="white" stroke-width="8.66"/>
<circle cx="3686.2" cy="690.6" r="21.0" fill="#e87ba4" stroke="white" stroke-width="8.66"/>
<circle cx="3840.0" cy="516.5" r="21.0" fill="#e87ba4" stroke="white" stroke-width="8.66"/>
<circle cx="3840.0" cy="516.5" r="21.0" fill="#e87ba4" stroke="white" stroke-width="8.66"/>
<text xml:space="preserve" x="3889.5" y="545.0" font-size="79.2" fill="#e87ba4">SOM-line-OG + LiP</text>
<text xml:space="preserve" x="3889.5" y="735.4" font-size="79.2" fill="#eb6834">SOM-line-OG</text>
<text xml:space="preserve" x="3889.5" y="941.8" font-size="79.2" fill="#eda100">SOM-line + LiP</text>
<text xml:space="preserve" x="3889.5" y="1032.9" font-size="79.2" fill="#2a78d6">SOM-line</text>
<text xml:space="preserve" x="3889.5" y="1124.0" font-size="79.2" fill="#1baf7a">LiP</text>
<text xml:space="preserve" x="3889.5" y="1215.1" font-size="79.2" fill="#52514e">Director</text>
</svg>