<svg xmlns="http://www.w3.org/2000/svg" width="4380" height="1684" viewBox="0 0 4380 1684" font-family="Helvetica,Arial,sans-serif">
<rect x="0" y="0" width="4380" height="1684" fill="white"/>
<text x="987.0" y="115.0" font-size="104.5" fill="#0b0b0b" text-anchor="middle">Cartpole Swingup</text>
<line x1="372.0" y1="1380.8" x2="1602.0" y2="1380.8" stroke="#e6e5e1" stroke-width="5.81"/>
<text x="325.5" y="1410.0" font-size="81.3" fill="#52514e" text-anchor="end">0</text>
<line x1="372.0" y1="1089.4" x2="1602.0" y2="1089.4" stroke="#e6e5e1" stroke-width="5.81"/>
<text x="325.5" y="1118.7" font-size="81.3" fill="#52514e" text-anchor="end">0.1</text>
<line x1="372.0" y1="798.0" x2="1602.0" y2="798.0" stroke="#e6e5e1" stroke-width="5.81"/>
<text x="325.5" y="827.3" font-size="81.3" fill="#52514e" text-anchor="end">0.2</text>
<line x1="372.0" y1="506.6" x2="1602.0" y2="506.6" stroke="#e6e5e1" stroke-width="5.81"/>
<text x="325.5" y="535.9" font-size="81.3" fill="#52514e" text-anchor="end">0.3</text>
<line x1="372.0" y1="215.2" x2="1602.0" y2="215.2" stroke="#e6e5e1" stroke-width="5.81"/>
<text x="325.5" y="244.5" font-size="81.3" fill="#52514e" text-anchor="end">0.4</text>
<text x="372.0" y="1510.9" font-size="81.3" fill="#52514e" text-anchor="middle">0</text>
<text x="525.8" y="1510.9" font-size="81.3" fill="#52514e" text-anchor="middle">1</text>
<text x="679.5" y="1510.9" font-size="81.3" fill="#52514e" text-anchor="middle">2</text>
<text x="833.2" y="1510.9" font-size="81.3" fill="#52514e" text-anchor="middle">3</text>
<text x="987.0" y="1510.9" font-size="81.3" fill="#52514e" text-anchor="middle">4</text>
<text x="1140.8" y="1510.9" font-size="81.3" fill="#52514e" text-anchor="middle">5</text>
<text x="1294.5" y="1510.9" font-size="81.3" fill="#52514e" text-anchor="middle">6</text>
<text x="1448.2" y="1510.9" font-size="81.3" fill="#52514e" text-anchor="middle">7</text>
<text x="1602.0" y="1510.9" font-size="81.3" fill="#52514e" text-anchor="middle">8</text>
<text x="987.0" y="1650.2" font-size="87.1" fill="#0b0b0b" text-anchor="middle">code blocks changed</text>
<text x="104.5" y="780.8" font-size="87.1" fill="#0b0b0b" text-anchor="middle" transform="rotate(-90 104.5 780.8)">decoded goal shift (MSE)</text>
<line x1="372.0" y1="1380.8" x2="1602.0" y2="1380.8" stroke="#8a8880" stroke-width="8.13"/>
<polygon points="372.0,1380.8 525.8,1349.8 679.5,1269.7 833.2,1152.0 987.0,1051.6 1140.8,959.3 1294.5,897.3 1448.2,844.3 1602.0,808.9 1602.0,977.6 1448.2,1002.6 1294.5,1053.3 1140.8,1114.8 987.0,1172.8 833.2,1239.5 679.5,1318.4 525.8,1366.2 372.0,1380.8" fill="#52514e" fill-opacity="0.16" stroke="none"/>
<path d="M372.0,1380.8 L525.8,1358.0 L679.5,1294.1 L833.2,1195.8 L987.0,1112.2 L1140.8,1037.0 L1294.5,975.3 L1448.2,923.4 L1602.0,893.3" fill="none" stroke="#52514e" stroke-width="19.74" stroke-linejoin="round"/>
<circle cx="372.0" cy="1380.8" r="19.7" fill="#52514e" stroke="white" stroke-width="8.13"/>
<circle cx="525.8" cy="1358.0" r="19.7" fill="#52514e" stroke="white" stroke-width="8.13"/>
<circle cx="679.5" cy="1294.1" r="19.7" fill="#52514e" stroke="white" stroke-width="8.13"/>
<circle cx="833.2" cy="1195.8" r="19.7" fill="#52514e" stroke="white" stroke-width="8.13"/>
<circle cx="987.0" cy="1112.2" r="19.7" fill="#52514e" stroke="white" stroke-width="8.13"/>
<circle cx="1140.8" cy="1037.0" r="19.7" fill="#52514e" stroke="white" stroke-width="8.13"/>
<circle cx="1294.5" cy="975.3" r="19.7" fill="#52514e" stroke="white" stroke-width="8.13"/>
<circle cx="1448.2" cy="923.4" r="19.7" fill="#52514e" stroke="white" stroke-width="8.13"/>
<circle cx="1602.0" cy="893.3" r="19.7" fill="#52514e" stroke="white" stroke-width="8.13"/>
<polygon points="372.0,1380.8 525.8,1269.7 679.5,1164.6 833.2,1061.2 987.0,971.8 1140.8,903.4 1294.5,822.3 1448.2,756.2 1602.0,691.6 1602.0,927.7 1448.2,961.7 1294.5,1013.5 1140.8,1060.1 987.0,1102.8 833.2,1158.6 679.5,1218.2 525.8,1303.0 372.0,1380.8" fill="#2a78d6" fill-opacity="0.16" stroke="none"/>
<path d="M372.0,1380.8 L525.8,1286.4 L679.5,1191.4 L833.2,1109.9 L987.0,1037.3 L1140.8,981.8 L1294.5,917.9 L1448.2,858.9 L1602.0,809.7" fill="none" stroke="#2a78d6" stroke-width="19.74" stroke-linejoin="round"/>
<circle cx="372.0" cy="1380.8" r="19.7" fill="#2a78d6" stroke="white" stroke-width="8.13"/>
<circle cx="525.8" cy="1286.4" r="19.7" fill="#2a78d6" stroke="white" stroke-width="8.13"/>
<circle cx="679.5" cy="1191.4" r="19.7" fill="#2a78d6" stroke="white" stroke-width="8.13"/>
<circle cx="833.2" cy="1109.9" r="19.7" fill="#2a78d6" stroke="white" stroke-width="8.13"/>
<circle cx="987.0" cy="1037.3" r="19.7" fill="#2a78d6" stroke="white" stroke-width="8.13"/>
<circle cx="1140.8" cy="981.8" r="19.7" fill="#2a78d6" stroke="white" stroke-width="8.13"/>
<circle cx="1294.5" cy="917.9" r="19.7" fill="#2a78d6" stroke="white" stroke-width="8.13"/>
<circle cx="1448.2" cy="858.9" r="19.7" fill="#2a78d6" stroke="white" stroke-width="8.13"/>
<circle cx="1602.0" cy="809.7" r="19.7" fill="#2a78d6" stroke="white" stroke-width="8.13"/>
<polygon points="372.0,1380.8 525.8,1100.0 679.5,888.7 833.2,742.6 987.0,626.4 1140.8,532.8 1294.5,477.8 1448.2,440.3 1602.0,439.4 1602.0,855.7 1448.2,872.9 1294.5,886.9 1140.8,914.1 987.0,967.0 833.2,1025.8 679.5,1100.8 525.8,1229.2 372.0,1380.8" fill="#eb6834" fill-opacity="0.16" stroke="none"/>
<path d="M372.0,1380.8 L525.8,1164.6 L679.5,994.8 L833.2,884.2 L987.0,796.7 L1140.8,723.5 L1294.5,682.4 L1448.2,656.6 L1602.0,647.5" fill="none" stroke="#eb6834" stroke-width="19.74" stroke-linejoin="round"/>
<circle cx="372.0" cy="1380.8" r="19.7" fill="#eb6834" stroke="white" stroke-width="8.13"/>
<circle cx="525.8" cy="1164.6" r="19.7" fill="#eb6834" stroke="white" stroke-width="8.13"/>
<circle cx="679.5" cy="994.8" r="19.7" fill="#eb6834" stroke="white" stroke-width="8.13"/>
<circle cx="833.2" cy="884.2" r="19.7" fill="#eb6834" stroke="white" stroke-width="8.13"/>
<circle cx="987.0" cy="796.7" r="19.7" fill="#eb6834" stroke="white" stroke-width="8.13"/>
<circle cx="1140.8" cy="723.5" r="19.7" fill="#eb6834" stroke="white" stroke-width="8.13"/>
<circle cx="1294.5" cy="682.4" r="19.7" fill="#eb6834" stroke="white" stroke-width="8.13"/>
<circle cx="1448.2" cy="656.6" r="19.7" fill="#eb6834" stroke="white" stroke-width="8.13"/>
<circle cx="1602.0" cy="647.5" r="19.7" fill="#eb6834" stroke="white" stroke-width="8.13"/>
<polygon points="372.0,1380.8 525.8,1234.6 679.5,1101.1 833.2,926.1 987.0,875.3 1140.8,759.1 1294.5,707.8 1448.2,620.8 1602.0,566.5 1602.0,743.2 1448.2,792.8 1294.5,833.7 1140.8,919.3 987.0,988.1 833.2,1090.2 679.5,1181.5 525.8,1292.3 372.0,1380.8" fill="#1baf7a" fill-opacity="0.16" stroke="none"/>
<path d="M372.0,1380.8 L525.8,1263.4 L679.5,1141.3 L833.2,1008.2 L987.0,931.7 L1140.8,839.2 L1294.5,770.8 L1448.2,706.8 L1602.0,654.9" fill="none" stroke="#1baf7a" stroke-width="19.74" stroke-linejoin="round"/>
<circle cx="372.0" cy="1380.8" r="19.7" fill="#1baf7a" stroke="white" stroke-width="8.13"/>
<circle cx="525.8" cy="1263.4" r="19.7" fill="#1baf7a" stroke="white" stroke-width="8.13"/>
<circle cx="679.5" cy="1141.3" r="19.7" fill="#1baf7a" stroke="white" stroke-width="8.13"/>
<circle cx="833.2" cy="1008.2" r="19.7" fill="#1baf7a" stroke="white" stroke-width="8.13"/>
<circle cx="987.0" cy="931.7" r="19.7" fill="#1baf7a" stroke="white" stroke-width="8.13"/>
<circle cx="1140.8" cy="839.2" r="19.7" fill="#1baf7a" stroke="white" stroke-width="8.13"/>
<circle cx="1294.5" cy="770.8" r="19.7" fill="#1baf7a" stroke="white" stroke-width="8.13"/>
<circle cx="1448.2" cy="706.8" r="19.7" fill="#1baf7a" stroke="white" stroke-width="8.13"/>
<circle cx="1602.0" cy="654.9" r="19.7" fill="#1baf7a" stroke="white" stroke-width="8.13"/>
<polygon points="372.0,1380.8 525.8,1258.9 679.5,1147.3 833.2,1058.1 987.0,986.8 1140.8,912.0 1294.5,833.2 1448.2,753.6 1602.0,698.1 1602.0,831.0 1448.2,897.9 1294.5,939.9 1140.8,1013.5 987.0,1084.5 833.2,1143.3 679.5,1222.5 525.8,1315.4 372.0,1380.8" fill="#eda100" fill-opacity="0.16" stroke="none"/>
<path d="M372.0,1380.8 L525.8,1287.1 L679.5,1184.9 L833.2,1100.7 L987.0,1035.7 L1140.8,962.8 L1294.5,886.6 L1448.2,825.8 L1602.0,764.5" fill="none" stroke="#eda100" stroke-width="19.74" stroke-linejoin="round"/>
<circle cx="372.0" cy="1380.8" r="19.7" fill="#eda100" stroke="white" stroke-width="8.13"/>
<circle cx="525.8" cy="1287.1" r="19.7" fill="#eda100" stroke="white" stroke-width="8.13"/>
<circle cx="679.5" cy="1184.9" r="19.7" fill="#eda100" stroke="white" stroke-width="8.13"/>
<circle cx="833.2" cy="1100.7" r="19.7" fill="#eda100" stroke="white" stroke-width="8.13"/>
<circle cx="987.0" cy="1035.7" r="19.7" fill="#eda100" stroke="white" stroke-width="8.13"/>
<circle cx="1140.8" cy="962.8" r="19.7" fill="#eda100" stroke="white" stroke-width="8.13"/>
<circle cx="1294.5" cy="886.6" r="19.7" fill="#eda100" stroke="white" stroke-width="8.13"/>
<circle cx="1448.2" cy="825.8" r="19.7" fill="#eda100" stroke="white" stroke-width="8.13"/>
<circle cx="1602.0" cy="764.5" r="19.7" fill="#eda100" stroke="white" stroke-width="8.13"/>
<polygon points="372.0,1380.8 525.8,986.5 679.5,710.8 833.2,545.4 987.0,426.7 1140.8,355.5 1294.5,319.5 1448.2,282.5 1602.0,269.7 1602.0,398.0 1448.2,439.2 1294.5,513.2 1140.8,568.1 987.0,679.2 833.2,804.9 679.5,947.6 525.8,1127.9 372.0,1380.8" fill="#e87ba4" fill-opacity="0.16" stroke="none"/>
<path d="M372.0,1380.8 L525.8,1057.2 L679.5,829.2 L833.2,675.1 L987.0,553.0 L1140.8,461.8 L1294.5,416.3 L1448.2,360.8 L1602.0,333.9" fill="none" stroke="#e87ba4" stroke-width="19.74" stroke-linejoin="round"/>
<circle cx="372.0" cy="1380.8" r="19.7" fill="#e87ba4" stroke="white" stroke-width="8.13"/>
<circle cx="525.8" cy="1057.2" r="19.7" fill="#e87ba4" stroke="white" stroke-width="8.13"/>
<circle cx="679.5" cy="829.2" r="19.7" fill="#e87ba4" stroke="white" stroke-width="8.13"/>
<circle cx="833.2" cy="675.1" r="19.7" fill="#e87ba4" stroke="white" stroke-width="8.13"/>
<circle cx="987.0" cy="553.0" r="19.7" fill="#e87ba4" stroke="white" stroke-width="8.13"/>
<circle cx="1140.8" cy="461.8" r="19.7" fill="#e87ba4" stroke="white" stroke-width="8.13"/>
<circle cx="1294.5" cy="416.3" r="19.7" fill="#e87ba4" stroke="white" stroke-width="8.13"/>
<circle cx="1448.2" cy="360.8" r="19.7" fill="#e87ba4" stroke="white" stroke-width="8.13"/>
<circle cx="1602.0" cy="333.9" r="19.7" fill="#e87ba4" stroke="white" stroke-width="8.13"/>
<text xml:space="preserve" x="1648.5" y="360.6" font-size="74.3" fill="#e87ba4">SOM-line-OG + LiP</text>
<text xml:space="preserve" x="1648.5" y="674.3" font-size="74.3" fill="#eb6834">SOM-line-OG</text>
<text xml:space="preserve" x="1648.5" y="759.7" font-size="74.3" fill="#1baf7a">LiP</text>
<text xml:space="preserve" x="1648.5" y="845.2" font-size="74.3" fill="#eda100">SOM-line + LiP</text>
<text xml:space="preserve" x="1648.5" y="930.7" font-size="74.3" fill="#2a78d6">SOM-line</text>
<text xml:space="preserve" x="1648.5" y="1016.2" font-size="74.3" fill="#52514e">Director</text>
<text x="2937.0" y="115.0" font-size="104.5" fill="#0b0b0b" text-anchor="middle">Hopper Stand</text>
<line x1="2322.0" y1="1380.8" x2="3552.0" y2="1380.8" stroke="#e6e5e1" stroke-width="5.81"/>
<line x1="2322.0" y1="1089.4" x2="3552.0" y2="1089.4" stroke="#e6e5e1" stroke-width="5.81"/>
<line x1="2322.0" y1="798.0" x2="3552.0" y2="798.0" stroke="#e6e5e1" stroke-width="5.81"/>
<line x1="2322.0" y1="506.6" x2="3552.0" y2="506.6" stroke="#e6e5e1" stroke-width="5.81"/>
<line x1="2322.0" y1="215.2" x2="3552.0" y2="215.2" stroke="#e6e5e1" stroke-width="5.81"/>
<text x="2322.0" y="1510.9" font-size="81.3" fill="#52514e" text-anchor="middle">0</text>
<text x="2475.8" y="1510.9" font-size="81.3" fill="#52514e" text-anchor="middle">1</text>
<text x="2629.5" y="1510.9" font-size="81.3" fill="#52514e" text-anchor="middle">2</text>
<text x="2783.2" y="1510.9" font-size="81.3" fill="#52514e" text-anchor="middle">3</text>
<text x="2937.0" y="1510.9" font-size="81.3" fill="#52514e" text-anchor="middle">4</text>
<text x="3090.8" y="1510.9" font-size="81.3" fill="#52514e" text-anchor="middle">5</text>
<text x="3244.5" y="1510.9" font-size="81.3" fill="#52514e" text-anchor="middle">6</text>
<text x="3398.2" y="1510.9" font-size="81.3" fill="#52514e" text-anchor="middle">7</text>
<text x="3552.0" y="1510.9" font-size="81.3" fill="#52514e" text-anchor="middle">8</text>
<text x="2937.0" y="1650.2" font-size="87.1" fill="#0b0b0b" text-anchor="middle">code blocks changed</text>
<line x1="2322.0" y1="1380.8" x2="3552.0" y2="1380.8" stroke="#8a8880" stroke-width="8.13"/>
<polygon points="2322.0,1380.8 2475.8,1366.6 2629.5,1337.4 2783.2,1298.1 2937.0,1269.2 3090.8,1237.1 3244.5,1205.3 3398.2,1183.3 3552.0,1169.3 3552.0,1188.7 3398.2,1204.3 3244.5,1231.3 3090.8,1248.8 2937.0,1276.2 2783.2,1311.2 2629.5,1349.1 2475.8,1371.8 2322.0,1380.8" fill="#52514e" fill-opacity="0.16" stroke="none"/>
<path d="M2322.0,1380.8 L2475.8,1369.2 L2629.5,1343.3 L2783.2,1304.7 L2937.0,1272.7 L3090.8,1242.9 L3244.5,1218.3 L3398.2,1193.8 L3552.0,1179.0" fill="none" stroke="#52514e" stroke-width="19.74" stroke-linejoin="round"/>
<circle cx="2322.0" cy="1380.8" r="19.7" fill="#52514e" stroke="white" stroke-width="8.13"/>
<circle cx="2475.8" cy="1369.2" r="19.7" fill="#52514e" stroke="white" stroke-width="8.13"/>
<circle cx="2629.5" cy="1343.3" r="19.7" fill="#52514e" stroke="white" stroke-width="8.13"/>
<circle cx="2783.2" cy="1304.7" r="19.7" fill="#52514e" stroke="white" stroke-width="8.13"/>
<circle cx="2937.0" cy="1272.7" r="19.7" fill="#52514e" stroke="white" stroke-width="8.13"/>
<circle cx="3090.8" cy="1242.9" r="19.7" fill="#52514e" stroke="white" stroke-width="8.13"/>
<circle cx="3244.5" cy="1218.3" r="19.7" fill="#52514e" stroke="white" stroke-width="8.13"/>
<circle cx="3398.2" cy="1193.8" r="19.7" fill="#52514e" stroke="white" stroke-width="8.13"/>
<circle cx="3552.0" cy="1179.0" r="19.7" fill="#52514e" stroke="white" stroke-width="8.13"/>
<polygon points="2322.0,1380.8 2475.8,1299.3 2629.5,1229.5 2783.2,1158.0 2937.0,1116.8 3090.8,1080.5 3244.5,1040.9 3398.2,1012.4 3552.0,986.0 3552.0,1032.4 3398.2,1077.2 3244.5,1098.9 3090.8,1146.4 2937.0,1200.0 2783.2,1235.9 2629.5,1285.8 2475.8,1331.5 2322.0,1380.8" fill="#2a78d6" fill-opacity="0.16" stroke="none"/>
<path d="M2322.0,1380.8 L2475.8,1315.4 L2629.5,1257.6 L2783.2,1197.0 L2937.0,1158.4 L3090.8,1113.5 L3244.5,1069.9 L3398.2,1044.8 L3552.0,1009.2" fill="none" stroke="#2a78d6" stroke-width="19.74" stroke-linejoin="round"/>
<circle cx="2322.0" cy="1380.8" r="19.7" fill="#2a78d6" stroke="white" stroke-width="8.13"/>
<circle cx="2475.8" cy="1315.4" r="19.7" fill="#2a78d6" stroke="white" stroke-width="8.13"/>
<circle cx="2629.5" cy="1257.6" r="19.7" fill="#2a78d6" stroke="white" stroke-width="8.13"/>
<circle cx="2783.2" cy="1197.0" r="19.7" fill="#2a78d6" stroke="white" stroke-width="8.13"/>
<circle cx="2937.0" cy="1158.4" r="19.7" fill="#2a78d6" stroke="white" stroke-width="8.13"/>
<circle cx="3090.8" cy="1113.5" r="19.7" fill="#2a78d6" stroke="white" stroke-width="8.13"/>
<circle cx="3244.5" cy="1069.9" r="19.7" fill="#2a78d6" stroke="white" stroke-width="8.13"/>
<circle cx="3398.2" cy="1044.8" r="19.7" fill="#2a78d6" stroke="white" stroke-width="8.13"/>
<circle cx="3552.0" cy="1009.2" r="19.7" fill="#2a78d6" stroke="white" stroke-width="8.13"/>
<polygon points="2322.0,1380.8 2475.8,1246.4 2629.5,1123.4 2783.2,1030.7 2937.0,940.5 3090.8,889.4 3244.5,832.0 3398.2,777.2 3552.0,715.9 3552.0,855.9 3398.2,877.5 3244.5,919.4 3090.8,992.3 2937.0,1076.8 2783.2,1166.9 2629.5,1247.4 2475.8,1323.8 2322.0,1380.8" fill="#eb6834" fill-opacity="0.16" stroke="none"/>
<path d="M2322.0,1380.8 L2475.8,1285.1 L2629.5,1185.4 L2783.2,1098.8 L2937.0,1008.7 L3090.8,940.9 L3244.5,875.7 L3398.2,827.4 L3552.0,785.9" fill="none" stroke="#eb6834" stroke-width="19.74" stroke-linejoin="round"/>
<circle cx="2322.0" cy="1380.8" r="19.7" fill="#eb6834" stroke="white" stroke-width="8.13"/>
<circle cx="2475.8" cy="1285.1" r="19.7" fill="#eb6834" stroke="white" stroke-width="8.13"/>
<circle cx="2629.5" cy="1185.4" r="19.7" fill="#eb6834" stroke="white" stroke-width="8.13"/>
<circle cx="2783.2" cy="1098.8" r="19.7" fill="#eb6834" stroke="white" stroke-width="8.13"/>
<circle cx="2937.0" cy="1008.7" r="19.7" fill="#eb6834" stroke="white" stroke-width="8.13"/>
<circle cx="3090.8" cy="940.9" r="19.7" fill="#eb6834" stroke="white" stroke-width="8.13"/>
<circle cx="3244.5" cy="875.7" r="19.7" fill="#eb6834" stroke="white" stroke-width="8.13"/>
<circle cx="3398.2" cy="827.4" r="19.7" fill="#eb6834" stroke="white" stroke-width="8.13"/>
<circle cx="3552.0" cy="785.9" r="19.7" fill="#eb6834" stroke="white" stroke-width="8.13"/>
<polygon points="2322.0,1380.8 2475.8,1327.9 2629.5,1278.1 2783.2,1230.5 2937.0,1171.4 3090.8,1119.5 3244.5,1101.5 3398.2,1050.5 3552.0,1025.9 3552.0,1043.4 3398.2,1090.3 3244.5,1136.2 3090.8,1181.0 2937.0,1215.3 2783.2,1255.3 2629.5,1299.1 2475.8,1340.3 2322.0,1380.8" fill="#1baf7a" fill-opacity="0.16" stroke="none"/>
<path d="M2322.0,1380.8 L2475.8,1334.1 L2629.5,1288.6 L2783.2,1242.9 L2937.0,1193.3 L3090.8,1150.3 L3244.5,1118.9 L3398.2,1070.4 L3552.0,1034.6" fill="none" stroke="#1baf7a" stroke-width="19.74" stroke-linejoin="round"/>
<circle cx="2322.0" cy="1380.8" r="19.7" fill="#1baf7a" stroke="white" stroke-width="8.13"/>
<circle cx="2475.8" cy="1334.1" r="19.7" fill="#1baf7a" stroke="white" stroke-width="8.13"/>
<circle cx="2629.5" cy="1288.6" r="19.7" fill="#1baf7a" stroke="white" stroke-width="8.13"/>
<circle cx="2783.2" cy="1242.9" r="19.7" fill="#1baf7a" stroke="white" stroke-width="8.13"/>
<circle cx="2937.0" cy="1193.3" r="19.7" fill="#1baf7a" stroke="white" stroke-width="8.13"/>
<circle cx="3090.8" cy="1150.3" r="19.7" fill="#1baf7a" stroke="white" stroke-width="8.13"/>
<circle cx="3244.5" cy="1118.9" r="19.7" fill="#1baf7a" stroke="white" stroke-width="8.13"/>
<circle cx="3398.2" cy="1070.4" r="19.7" fill="#1baf7a" stroke="white" stroke-width="8.13"/>
<circle cx="3552.0" cy="1034.6" r="19.7" fill="#1baf7a" stroke="white" stroke-width="8.13"/>
<polygon points="2322.0,1380.8 2475.8,1313.0 2629.5,1251.6 2783.2,1206.1 2937.0,1150.4 3090.8,1115.5 3244.5,1053.9 3398.2,1026.3 3552.0,1003.0 3552.0,1133.5 3398.2,1174.3 3244.5,1193.9 3090.8,1223.6 2937.0,1242.7 2783.2,1283.7 2629.5,1321.8 2475.8,1352.4 2322.0,1380.8" fill="#eda100" fill-opacity="0.16" stroke="none"/>
<path d="M2322.0,1380.8 L2475.8,1332.7 L2629.5,1286.7 L2783.2,1244.9 L2937.0,1196.6 L3090.8,1169.5 L3244.5,1123.9 L3398.2,1100.3 L3552.0,1068.2" fill="none" stroke="#eda100" stroke-width="19.74" stroke-linejoin="round"/>
<circle cx="2322.0" cy="1380.8" r="19.7" fill="#eda100" stroke="white" stroke-width="8.13"/>
<circle cx="2475.8" cy="1332.7" r="19.7" fill="#eda100" stroke="white" stroke-width="8.13"/>
<circle cx="2629.5" cy="1286.7" r="19.7" fill="#eda100" stroke="white" stroke-width="8.13"/>
<circle cx="2783.2" cy="1244.9" r="19.7" fill="#eda100" stroke="white" stroke-width="8.13"/>
<circle cx="2937.0" cy="1196.6" r="19.7" fill="#eda100" stroke="white" stroke-width="8.13"/>
<circle cx="3090.8" cy="1169.5" r="19.7" fill="#eda100" stroke="white" stroke-width="8.13"/>
<circle cx="3244.5" cy="1123.9" r="19.7" fill="#eda100" stroke="white" stroke-width="8.13"/>
<circle cx="3398.2" cy="1100.3" r="19.7" fill="#eda100" stroke="white" stroke-width="8.13"/>
<circle cx="3552.0" cy="1068.2" r="19.7" fill="#eda100" stroke="white" stroke-width="8.13"/>
<polygon points="2322.0,1380.8 2475.8,1220.1 2629.5,1069.2 2783.2,912.7 2937.0,813.3 3090.8,730.3 3244.5,614.3 3398.2,564.2 3552.0,535.8 3552.0,656.5 3398.2,746.5 3244.5,818.6 3090.8,918.9 2937.0,1002.1 2783.2,1091.1 2629.5,1174.7 2475.8,1283.0 2322.0,1380.8" fill="#e87ba4" fill-opacity="0.16" stroke="none"/>
<path d="M2322.0,1380.8 L2475.8,1251.6 L2629.5,1122.0 L2783.2,1001.9 L2937.0,907.7 L3090.8,824.6 L3244.5,716.4 L3398.2,655.4 L3552.0,596.1" fill="none" stroke="#e87ba4" stroke-width="19.74" stroke-linejoin="round"/>
<circle cx="2322.0" cy="1380.8" r="19.7" fill="#e87ba4" stroke="white" stroke-width="8.13"/>
<circle cx="2475.8" cy="1251.6" r="19.7" fill="#e87ba4" stroke="white" stroke-width="8.13"/>
<circle cx="2629.5" cy="1122.0" r="19.7" fill="#e87ba4" stroke="white" stroke-width="8.13"/>
<circle cx="2783.2" cy="1001.9" r="19.7" fill="#e87ba4" stroke="white" stroke-width="8.13"/>
<circle cx="2937.0" cy="907.7" r="19.7" fill="#e87ba4" stroke="white" stroke-width="8.13"/>
<circle cx="3090.8" cy="824.6" r="19.7" fill="#e87ba4" stroke="white" stroke-width="8.13"/>
<circle cx="3244.5" cy="716.4" r="19.7" fill="#e87ba4" stroke="white" stroke-width="8.13"/>
<circle cx="3398.2" cy="655.4" r="19.7" fill="#e87ba4" stroke="white" stroke-width="8.13"/>
<circle cx="3552.0" cy="596.1" r="19.7" fill="#e87ba4" stroke="white" stroke-width="8.13"/>
<text xml:space="preserve" x="3598.5" y="622.9" font-size="74.3" fill="#e87ba4">SOM-line-OG + LiP</text>
<text xml:space="preserve" x="3598.5" y="812.7" font-size="74.3" fill="#eb6834">SOM-line-OG</text>
<text xml:space="preserve" x="3598.5" y="1036.0" font-size="74.3" fill="#2a78d6">SOM-line</text>
<text xml:space="preserve" x="3598.5" y="1121.5" font-size="74.3" fill="#1baf7a">LiP</text>
<text xml:space="preserve" x="3598.5" y="1206.9" font-size="74.3" fill="#eda100">SOM-line + LiP</text>
<text xml:space="preserve" x="3598.5" y="1292.4" font-size="74.3" fill="#52514e">Director</text>
</svg>