<svg xmlns="http://www.w3.org/2000/svg" width="1022" height="556" viewBox="0 0 1022 556" font-family="Helvetica,Arial,sans-serif">
<rect width="1022" height="556" fill="white"/>
<text x="310.0" y="46.0" font-size="21.0" fill="#000000" text-anchor="middle">Director: a categorical per block</text>
<rect x="166.0" y="76.0" width="48" height="48.0" fill="#5c5b56" fill-opacity="0.85"/>
<text x="104" y="105.7" font-size="15.8" fill="#1a1a1a" text-anchor="end">block 1</text>
<rect x="118.0" y="169.4" width="48" height="2.6" fill="#5c5b56" fill-opacity="0.85"/>
<rect x="166.0" y="171.5" width="48" height="0.5" fill="#5c5b56" fill-opacity="0.85"/>
<rect x="214.0" y="164.0" width="48" height="8.0" fill="#5c5b56" fill-opacity="0.85"/>
<rect x="262.0" y="171.5" width="48" height="0.5" fill="#5c5b56" fill-opacity="0.85"/>
<rect x="310.0" y="171.1" width="48" height="0.9" fill="#5c5b56" fill-opacity="0.85"/>
<rect x="358.0" y="139.6" width="48" height="32.4" fill="#5c5b56" fill-opacity="0.85"/>
<rect x="406.0" y="169.0" width="48" height="3.0" fill="#5c5b56" fill-opacity="0.85"/>
<text x="104" y="153.7" font-size="15.8" fill="#1a1a1a" text-anchor="end">block 2</text>
<rect x="166.0" y="218.5" width="48" height="1.5" fill="#5c5b56" fill-opacity="0.85"/>
<rect x="214.0" y="178.9" width="48" height="41.1" fill="#5c5b56" fill-opacity="0.85"/>
<rect x="358.0" y="215.5" width="48" height="4.5" fill="#5c5b56" fill-opacity="0.85"/>
<text x="104" y="201.7" font-size="15.8" fill="#1a1a1a" text-anchor="end">block 3</text>
<rect x="118.0" y="254.8" width="48" height="13.2" fill="#5c5b56" fill-opacity="0.85"/>
<rect x="166.0" y="261.6" width="48" height="6.4" fill="#5c5b56" fill-opacity="0.85"/>
<rect x="214.0" y="266.0" width="48" height="2.0" fill="#5c5b56" fill-opacity="0.85"/>
<rect x="262.0" y="260.1" width="48" height="7.9" fill="#5c5b56" fill-opacity="0.85"/>
<rect x="358.0" y="249.7" width="48" height="18.3" fill="#5c5b56" fill-opacity="0.85"/>
<text x="104" y="249.7" font-size="15.8" fill="#1a1a1a" text-anchor="end">block 4</text>
<rect x="118.0" y="313.9" width="48" height="2.1" fill="#5c5b56" fill-opacity="0.85"/>
<rect x="166.0" y="310.2" width="48" height="5.8" fill="#5c5b56" fill-opacity="0.85"/>
<rect x="310.0" y="314.8" width="48" height="1.2" fill="#5c5b56" fill-opacity="0.85"/>
<rect x="358.0" y="315.0" width="48" height="1.0" fill="#5c5b56" fill-opacity="0.85"/>
<rect x="406.0" y="284.9" width="48" height="31.1" fill="#5c5b56" fill-opacity="0.85"/>
<rect x="454.0" y="309.5" width="48" height="6.5" fill="#5c5b56" fill-opacity="0.85"/>
<text x="104" y="297.7" font-size="15.8" fill="#1a1a1a" text-anchor="end">block 5</text>
<rect x="118.0" y="361.0" width="48" height="3.0" fill="#5c5b56" fill-opacity="0.85"/>
<rect x="166.0" y="337.1" width="48" height="26.9" fill="#5c5b56" fill-opacity="0.85"/>
<rect x="214.0" y="362.8" width="48" height="1.2" fill="#5c5b56" fill-opacity="0.85"/>
<rect x="310.0" y="356.3" width="48" height="7.7" fill="#5c5b56" fill-opacity="0.85"/>
<rect x="358.0" y="356.4" width="48" height="7.6" fill="#5c5b56" fill-opacity="0.85"/>
<rect x="406.0" y="362.9" width="48" height="1.1" fill="#5c5b56" fill-opacity="0.85"/>
<text x="104" y="345.7" font-size="15.8" fill="#1a1a1a" text-anchor="end">block 6</text>
<rect x="118.0" y="407.2" width="48" height="4.8" fill="#5c5b56" fill-opacity="0.85"/>
<rect x="214.0" y="397.8" width="48" height="14.2" fill="#5c5b56" fill-opacity="0.85"/>
<rect x="262.0" y="403.1" width="48" height="8.9" fill="#5c5b56" fill-opacity="0.85"/>
<rect x="358.0" y="408.8" width="48" height="3.2" fill="#5c5b56" fill-opacity="0.85"/>
<rect x="454.0" y="395.3" width="48" height="16.7" fill="#5c5b56" fill-opacity="0.85"/>
<text x="104" y="393.7" font-size="15.8" fill="#1a1a1a" text-anchor="end">block 7</text>
<rect x="214.0" y="449.1" width="48" height="10.9" fill="#5c5b56" fill-opacity="0.85"/>
<rect x="262.0" y="428.5" width="48" height="31.5" fill="#5c5b56" fill-opacity="0.85"/>
<rect x="358.0" y="459.4" width="48" height="0.6" fill="#5c5b56" fill-opacity="0.85"/>
<rect x="406.0" y="455.6" width="48" height="4.4" fill="#5c5b56" fill-opacity="0.85"/>
<rect x="454.0" y="459.5" width="48" height="0.5" fill="#5c5b56" fill-opacity="0.85"/>
<text x="104" y="441.7" font-size="15.8" fill="#1a1a1a" text-anchor="end">block 8</text>
<line x1="118" y1="76" x2="502" y2="76" stroke="#d5d5d2" stroke-width="1.6"/>
<line x1="118" y1="124" x2="502" y2="124" stroke="#d5d5d2" stroke-width="1.6"/>
<line x1="118" y1="172" x2="502" y2="172" stroke="#d5d5d2" stroke-width="1.6"/>
<line x1="118" y1="220" x2="502" y2="220" stroke="#d5d5d2" stroke-width="1.6"/>
<line x1="118" y1="268" x2="502" y2="268" stroke="#d5d5d2" stroke-width="1.6"/>
<line x1="118" y1="316" x2="502" y2="316" stroke="#d5d5d2" stroke-width="1.6"/>
<line x1="118" y1="364" x2="502" y2="364" stroke="#d5d5d2" stroke-width="1.6"/>
<line x1="118" y1="412" x2="502" y2="412" stroke="#d5d5d2" stroke-width="1.6"/>
<line x1="118" y1="460" x2="502" y2="460" stroke="#d5d5d2" stroke-width="1.6"/>
<line x1="118" y1="76" x2="118" y2="460" stroke="#d5d5d2" stroke-width="1.6"/>
<line x1="166" y1="76" x2="166" y2="460" stroke="#d5d5d2" stroke-width="1.6"/>
<line x1="214" y1="76" x2="214" y2="460" stroke="#d5d5d2" stroke-width="1.6"/>
<line x1="262" y1="76" x2="262" y2="460" stroke="#d5d5d2" stroke-width="1.6"/>
<line x1="310" y1="76" x2="310" y2="460" stroke="#d5d5d2" stroke-width="1.6"/>
<line x1="358" y1="76" x2="358" y2="460" stroke="#d5d5d2" stroke-width="1.6"/>
<line x1="406" y1="76" x2="406" y2="460" stroke="#d5d5d2" stroke-width="1.6"/>
<line x1="454" y1="76" x2="454" y2="460" stroke="#d5d5d2" stroke-width="1.6"/>
<line x1="502" y1="76" x2="502" y2="460" stroke="#d5d5d2" stroke-width="1.6"/>
<rect x="118" y="76" width="384" height="384" fill="none" stroke="#333333" stroke-width="2.4"/>
<text x="142.0" y="491.5" font-size="15.8" fill="#1a1a1a" text-anchor="middle">0</text>
<text x="190.0" y="491.5" font-size="15.8" fill="#1a1a1a" text-anchor="middle">1</text>
<text x="238.0" y="491.5" font-size="15.8" fill="#1a1a1a" text-anchor="middle">2</text>
<text x="286.0" y="491.5" font-size="15.8" fill="#1a1a1a" text-anchor="middle">3</text>
<text x="334.0" y="491.5" font-size="15.8" fill="#1a1a1a" text-anchor="middle">4</text>
<text x="382.0" y="491.5" font-size="15.8" fill="#1a1a1a" text-anchor="middle">5</text>
<text x="430.0" y="491.5" font-size="15.8" fill="#1a1a1a" text-anchor="middle">6</text>
<text x="478.0" y="491.5" font-size="15.8" fill="#1a1a1a" text-anchor="middle">7</text>
<text x="310.0" y="518.3" font-size="19.4" fill="#000000" text-anchor="middle">class index</text>
<text x="790.0" y="46.0" font-size="21.0" fill="#000000" text-anchor="middle">Ours: a discretized Gaussian per block</text>
<rect x="598.0" y="104.2" width="48" height="19.8" fill="#2a78d6" fill-opacity="0.85"/>
<rect x="646.0" y="99.9" width="48" height="24.1" fill="#2a78d6" fill-opacity="0.85"/>
<rect x="694.0" y="119.9" width="48" height="4.1" fill="#2a78d6" fill-opacity="0.85"/>
<text x="584" y="105.7" font-size="15.8" fill="#1a1a1a" text-anchor="end">block 1</text>
<rect x="598.0" y="170.2" width="48" height="1.8" fill="#2a78d6" fill-opacity="0.85"/>
<rect x="646.0" y="154.4" width="48" height="17.6" fill="#2a78d6" fill-opacity="0.85"/>
<rect x="694.0" y="148.0" width="48" height="24.0" fill="#2a78d6" fill-opacity="0.85"/>
<rect x="742.0" y="167.4" width="48" height="4.6" fill="#2a78d6" fill-opacity="0.85"/>
<text x="584" y="153.7" font-size="15.8" fill="#1a1a1a" text-anchor="end">block 2</text>
<rect x="790.0" y="217.9" width="48" height="2.1" fill="#2a78d6" fill-opacity="0.85"/>
<rect x="838.0" y="201.3" width="48" height="18.7" fill="#2a78d6" fill-opacity="0.85"/>
<rect x="886.0" y="196.8" width="48" height="23.2" fill="#2a78d6" fill-opacity="0.85"/>
<rect x="934.0" y="216.0" width="48" height="4.0" fill="#2a78d6" fill-opacity="0.85"/>
<text x="584" y="201.7" font-size="15.8" fill="#1a1a1a" text-anchor="end">block 3</text>
<rect x="742.0" y="259.4" width="48" height="8.6" fill="#2a78d6" fill-opacity="0.85"/>
<rect x="790.0" y="241.2" width="48" height="26.8" fill="#2a78d6" fill-opacity="0.85"/>
<rect x="838.0" y="256.4" width="48" height="11.6" fill="#2a78d6" fill-opacity="0.85"/>
<rect x="886.0" y="267.3" width="48" height="0.7" fill="#2a78d6" fill-opacity="0.85"/>
<text x="584" y="249.7" font-size="15.8" fill="#1a1a1a" text-anchor="end">block 4</text>
<rect x="598.0" y="297.8" width="48" height="18.2" fill="#2a78d6" fill-opacity="0.85"/>
<rect x="646.0" y="291.1" width="48" height="24.9" fill="#2a78d6" fill-opacity="0.85"/>
<rect x="694.0" y="311.2" width="48" height="4.8" fill="#2a78d6" fill-opacity="0.85"/>
<text x="584" y="297.7" font-size="15.8" fill="#1a1a1a" text-anchor="end">block 5</text>
<rect x="646.0" y="363.5" width="48" height="0.5" fill="#2a78d6" fill-opacity="0.85"/>
<rect x="694.0" y="354.6" width="48" height="9.4" fill="#2a78d6" fill-opacity="0.85"/>
<rect x="742.0" y="337.1" width="48" height="26.9" fill="#2a78d6" fill-opacity="0.85"/>
<rect x="790.0" y="353.3" width="48" height="10.7" fill="#2a78d6" fill-opacity="0.85"/>
<rect x="838.0" y="363.4" width="48" height="0.6" fill="#2a78d6" fill-opacity="0.85"/>
<text x="584" y="345.7" font-size="15.8" fill="#1a1a1a" text-anchor="end">block 6</text>
<rect x="694.0" y="407.6" width="48" height="4.4" fill="#2a78d6" fill-opacity="0.85"/>
<rect x="742.0" y="388.2" width="48" height="23.8" fill="#2a78d6" fill-opacity="0.85"/>
<rect x="790.0" y="394.2" width="48" height="17.8" fill="#2a78d6" fill-opacity="0.85"/>
<rect x="838.0" y="410.1" width="48" height="1.9" fill="#2a78d6" fill-opacity="0.85"/>
<text x="584" y="393.7" font-size="15.8" fill="#1a1a1a" text-anchor="end">block 7</text>
<rect x="598.0" y="452.1" width="48" height="7.9" fill="#2a78d6" fill-opacity="0.85"/>
<rect x="646.0" y="433.3" width="48" height="26.7" fill="#2a78d6" fill-opacity="0.85"/>
<rect x="694.0" y="447.4" width="48" height="12.6" fill="#2a78d6" fill-opacity="0.85"/>
<rect x="742.0" y="459.2" width="48" height="0.8" fill="#2a78d6" fill-opacity="0.85"/>
<text x="584" y="441.7" font-size="15.8" fill="#1a1a1a" text-anchor="end">block 8</text>
<line x1="598" y1="76" x2="982" y2="76" stroke="#d5d5d2" stroke-width="1.6"/>
<line x1="598" y1="124" x2="982" y2="124" stroke="#d5d5d2" stroke-width="1.6"/>
<line x1="598" y1="172" x2="982" y2="172" stroke="#d5d5d2" stroke-width="1.6"/>
<line x1="598" y1="220" x2="982" y2="220" stroke="#d5d5d2" stroke-width="1.6"/>
<line x1="598" y1="268" x2="982" y2="268" stroke="#d5d5d2" stroke-width="1.6"/>
<line x1="598" y1="316" x2="982" y2="316" stroke="#d5d5d2" stroke-width="1.6"/>
<line x1="598" y1="364" x2="982" y2="364" stroke="#d5d5d2" stroke-width="1.6"/>
<line x1="598" y1="412" x2="982" y2="412" stroke="#d5d5d2" stroke-width="1.6"/>
<line x1="598" y1="460" x2="982" y2="460" stroke="#d5d5d2" stroke-width="1.6"/>
<line x1="598" y1="76" x2="598" y2="460" stroke="#d5d5d2" stroke-width="1.6"/>
<line x1="646" y1="76" x2="646" y2="460" stroke="#d5d5d2" stroke-width="1.6"/>
<line x1="694" y1="76" x2="694" y2="460" stroke="#d5d5d2" stroke-width="1.6"/>
<line x1="742" y1="76" x2="742" y2="460" stroke="#d5d5d2" stroke-width="1.6"/>
<line x1="790" y1="76" x2="790" y2="460" stroke="#d5d5d2" stroke-width="1.6"/>
<line x1="838" y1="76" x2="838" y2="460" stroke="#d5d5d2" stroke-width="1.6"/>
<line x1="886" y1="76" x2="886" y2="460" stroke="#d5d5d2" stroke-width="1.6"/>
<line x1="934" y1="76" x2="934" y2="460" stroke="#d5d5d2" stroke-width="1.6"/>
<line x1="982" y1="76" x2="982" y2="460" stroke="#d5d5d2" stroke-width="1.6"/>
<rect x="598" y="76" width="384" height="384" fill="none" stroke="#333333" stroke-width="2.4"/>
<text x="622.0" y="491.5" font-size="15.8" fill="#1a1a1a" text-anchor="middle">0</text>
<text x="670.0" y="491.5" font-size="15.8" fill="#1a1a1a" text-anchor="middle">1</text>
<text x="718.0" y="491.5" font-size="15.8" fill="#1a1a1a" text-anchor="middle">2</text>
<text x="766.0" y="491.5" font-size="15.8" fill="#1a1a1a" text-anchor="middle">3</text>
<text x="814.0" y="491.5" font-size="15.8" fill="#1a1a1a" text-anchor="middle">4</text>
<text x="862.0" y="491.5" font-size="15.8" fill="#1a1a1a" text-anchor="middle">5</text>
<text x="910.0" y="491.5" font-size="15.8" fill="#1a1a1a" text-anchor="middle">6</text>
<text x="958.0" y="491.5" font-size="15.8" fill="#1a1a1a" text-anchor="middle">7</text>
<text x="790.0" y="518.3" font-size="19.4" fill="#000000" text-anchor="middle">class index</text>
</svg>